<?xml version="1.0" standalone="no"?>
<!DOCTYPE svg PUBLIC "-//W3C//DTD SVG 1.1//EN" "http://www.w3.org/Graphics/SVG/1.1/DTD/svg11.dtd" >
<svg xmlns="http://www.w3.org/2000/svg">
<metadata>
<json>
<![CDATA[
{
	"fontFamily": "aartericons",
	"majorVersion": 1,
	"minorVersion": 0,
	"fontURL": "https://uninga.github.io/aartericons",
	"description": "Lightweigt and Clean Icon for your Website and your Applications.\nFont generated by IcoMoon.",
	"copyright": "Aartericons",
	"designer": "Uninga",
	"designerURL": "https://unin.ga",
	"version": "Version 1.0",
	"fontId": "aartericons",
	"psName": "aartericons",
	"subFamily": "Regular",
	"fullName": "aartericons"
}
]]>
</json>
</metadata>
<defs>
<font id="aartericons" horiz-adv-x="1024">
<font-face units-per-em="1024" ascent="960" descent="-64" />
<missing-glyph horiz-adv-x="1024" />
<glyph unicode="&#x20;" horiz-adv-x="512" d="" />
<glyph unicode="&#xe900;" glyph-name="search-bold" data-tags="search" d="M643.815 220.386c-66.435-47.339-147.723-75.183-235.514-75.183-224.39 0-406.295 181.905-406.295 406.295s181.905 406.295 406.295 406.295c224.39 0 406.295-181.905 406.295-406.295 0-87.791-27.845-169.079-75.183-235.514l266.951-266.951c26.299-26.299 26.081-68.38-0.009-94.47l-1.12-1.12c-26.022-26.022-68.385-26.094-94.47-0.009l-266.951 266.951zM408.301 240.802c171.593 0 310.696 139.104 310.696 310.696s-139.104 310.696-310.696 310.696c-171.593 0-310.696-139.104-310.696-310.696s139.104-310.696 310.696-310.696v0z" />
<glyph unicode="&#xe901;" glyph-name="search" data-tags="search" horiz-adv-x="1008" d="M648.889 232.35c-65.556-46.713-145.768-74.188-232.398-74.188-221.422 0-400.919 179.498-400.919 400.919s179.498 400.919 400.919 400.919c221.422 0 400.919-179.498 400.919-400.919 0-110.711-44.875-210.941-117.427-283.492l282.878-282.878c12.974-12.974 12.658-33.776-0.367-46.8-13.115-13.115-33.978-13.189-46.8-0.367l-286.806 286.806zM416.491 205.329c195.372 0 353.752 158.382 353.752 353.752s-158.382 353.752-353.752 353.752c-195.372 0-353.752-158.382-353.752-353.752s158.382-353.752 353.752-353.752v0z" />
<glyph unicode="&#xe902;" glyph-name="menu" data-tags="menu" d="M0 806.4h1024v-102.4h-1024v102.4zM0 499.2h1024v-102.4h-1024v102.4zM0 192h1024v-102.4h-1024v102.4z" />
<glyph unicode="&#xe903;" glyph-name="close" data-tags="close" d="M512 533.323l-426.676 426.676-85.323-85.323 426.676-426.676-426.676-426.676 85.323-85.323 426.676 426.676 426.676-426.676 85.323 85.323-426.676 426.676 426.676 426.676-85.323 85.323-426.676-426.676z" />
<glyph unicode="&#xe904;" glyph-name="gplus" data-tags="gplus" d="M512 960c282.77 0 512-229.23 512-512s-229.23-512-512-512c-282.77 0-512 229.23-512 512s229.23 512 512 512zM512 898.56c-248.837 0-450.56-201.723-450.56-450.56s201.723-450.56 450.56-450.56c248.837 0 450.56 201.723 450.56 450.56s-201.723 450.56-450.56 450.56zM783.257 507.192v-108.102h-45.902v108.102h-107.104v44.993h107.104v107.153h45.902v-107.153h81.768c6.039-14.594 11.263-29.611 15.615-44.993h-97.383zM240.139 196.592c59.681 36.533 140.060 41.358 183.527 44.115-13.454 17.233-28.978 35.499-28.978 65.484 0 16.199 4.83 25.849 9.659 37.222-10.694-1.034-21.044-2.068-30.703-2.068-101.768 0-159.379 75.823-159.379 150.613 0 44.115 20.354 93.125 61.406 128.59 54.851 45.046 120.052 52.732 171.798 52.732h197.671l-61.406-34.5h-59.336c22.078-18.232 67.96-56.592 67.96-129.589 0-70.998-40.362-104.43-80.379-136.138-12.764-12.407-26.908-25.849-26.908-46.873s14.144-32.742 24.838-41.358l34.498-26.883c42.432-35.155 80.724-67.896 80.724-134.070 0-43.639-20.384-87.439-60.101-121.052-21.37-3.481-43.292-5.318-65.632-5.378 40.329 17.674 61.222 50.012 61.222 88.863 0 48.941-31.393 74.789-104.528 126.832-7.589 0.689-12.419 0.689-22.078 0.689-8.624 0-60.371-1.723-100.733-15.165-21.044-7.582-82.449-30.674-82.449-98.915 0-7.416 0.79-14.606 2.332-21.531-101.148 74.963-57.331 64.383-68.846 64.383 11.515 19.345 29.369 38.365 55.819 53.995zM387.099 641.641c-24.838 0-51.746-12.476-67.27-31.674-16.214-20.128-21.044-45.977-21.044-70.792 0-64.45 37.257-170.947 120.052-170.947 23.803 0 49.677 11.718 65.2 26.883 22.078 22.058 23.803 52.732 23.803 69.964 0 69.275-41.052 176.565-120.742 176.565z" />
<glyph unicode="&#xe905;" glyph-name="side-menu" data-tags="menu" d="M870.4 960v-1024h-102.4v1024h102.4zM563.2 960v-1024h-102.4v1024h102.4zM256 960v-1024h-102.4v1024h102.4z" />
<glyph unicode="&#xe906;" glyph-name="link" data-tags="link" d="M235.223-64.060c-52.285 0-101.438 20.383-138.402 57.346l-39.564 39.507c-76.303 76.303-76.303 200.501 0 276.777l257.008 257.008c36.964 36.964 86.117 57.346 138.402 57.346s101.438-20.383 138.375-57.346l39.535-39.535c10.932-10.932 10.932-28.603 0-39.535s-28.603-10.932-39.535 0l-39.535 39.535c-26.395 26.395-61.512 40.961-98.838 40.961-37.354 0-72.472-14.568-98.867-40.961l-257.008-256.981c-54.494-54.494-54.494-143.183 0-197.705l39.535-39.535c26.395-26.395 61.512-40.961 98.867-40.961 37.327 0 72.445 14.568 98.838 40.961l177.966 177.937c10.932 10.932 28.603 10.932 39.535 0s10.932-28.603 0-39.535l-177.937-177.937c-36.935-36.991-86.088-57.346-138.375-57.346zM571.303 272.047c-52.257 0-101.438 20.383-138.375 57.346-10.932 10.932-10.932 28.603 0 39.535s28.603 10.932 39.535 0c26.395-26.395 61.512-40.961 98.838-40.961 37.354 0 72.472 14.568 98.867 40.961l257.008 257.008c54.494 54.494 54.494 143.183 0 197.678l-39.507 39.591c-54.494 54.494-143.211 54.494-197.705 0l-177.966-177.966c-10.932-10.932-28.603-10.932-39.535 0s-10.932 28.603 0 39.535l177.937 177.937c76.303 76.303 200.473 76.303 276.777 0l39.535-39.564c76.303-76.303 76.303-200.473 0-276.748l-257.008-257.008c-36.935-36.964-86.117-57.346-138.402-57.346z" />
<glyph unicode="&#xe907;" glyph-name="trash" data-tags="trash" d="M716.8-64h-414.72c-84.48 0-151.040 69.12-151.040 151.040v463.36c0 15.36 10.24 25.6 25.6 25.6s25.6-10.24 25.6-25.6v-463.36c0-56.32 46.080-99.84 99.84-99.84h414.72c56.32 0 99.84 46.080 99.84 99.84v463.36c0 15.36 10.24 25.6 25.6 25.6s25.6-10.24 25.6-25.6v-463.36c0-81.92-69.12-151.040-151.040-151.040zM852.48 834.56h-194.56c-12.8 71.68-74.24 125.44-148.48 125.44s-135.68-53.76-148.48-125.44h-194.56c-58.88 0-104.96-46.080-104.96-104.96s46.080-102.4 104.96-102.4h688.64c58.88 0 104.96 46.080 104.96 104.96s-48.64 102.4-107.52 102.4zM509.44 908.8c46.080 0 84.48-30.72 94.72-74.24h-192c12.8 43.52 51.2 74.24 97.28 74.24zM852.48 678.4h-686.080c-28.16 0-53.76 23.040-53.76 53.76 0 28.16 23.040 53.76 53.76 53.76h688.64c28.16 0 53.76-23.040 53.76-53.76-2.56-30.72-25.6-53.76-56.32-53.76zM330.24 61.44c-15.36 0-25.6 10.24-25.6 25.6v427.52c0 15.36 10.24 25.6 25.6 25.6s25.6-10.24 25.6-25.6v-427.52c0-12.8-12.8-25.6-25.6-25.6zM688.64 61.44c-15.36 0-25.6 10.24-25.6 25.6v427.52c0 15.36 10.24 25.6 25.6 25.6s25.6-10.24 25.6-25.6v-427.52c0-12.8-12.8-25.6-25.6-25.6zM509.44 61.44c-15.36 0-25.6 10.24-25.6 25.6v427.52c0 15.36 10.24 25.6 25.6 25.6s25.6-10.24 25.6-25.6v-427.52c0-12.8-12.8-25.6-25.6-25.6z" />
<glyph unicode="&#xe908;" glyph-name="dislike" data-tags="like" d="M90.752 271.104c40-10.496 134.048-10.368 271.616-14.016-6.496-30.016-8-57.088-8-105.152 0-114.816 83.648-215.936 157.632-215.936 52.256 0 95.328 42.72 96 95.264 0.704 64.448 20.64 175.744 128 232.192 7.872 4.16 30.4 15.264 33.696 16.704l-1.696 1.44c16.8-14.496 40.096-25.6 64-25.6h96c52.928 0 96 43.072 96 96v512c0 52.928-43.072 96-96 96h-96c-38.080 0-69.952-23.008-85.376-55.264-0.384 0.128-1.056 0.32-1.504 0.384-2.112 0.576-4.608 1.184-7.648 1.984-0.576 0.16-0.864 0.224-1.472 0.384-18.432 4.576-53.92 13.056-129.76 30.496-16.256 3.712-102.144 22.016-191.104 22.016h-174.944c-53.312 0-91.744-20.512-114.624-61.696-0.32-0.64-7.68-15.008-13.696-34.432-4.512-14.624-6.176-35.328-0.736-56.32-34.368-23.616-45.44-59.328-52.64-82.56-12.064-38.112-8.448-66.752-0.064-87.264-19.328-18.24-35.808-46.048-42.752-88.512-4.32-26.304 0.32-53.376 12.448-75.904-18.112-20.352-26.368-45.952-27.328-69.632l-0.384-6.688c-0.224-4.192-0.416-6.784-0.416-16 0-40.416 28-91.968 90.752-109.888zM800 864c0 17.696 14.304 32 32 32h96c17.696 0 32-14.304 32-32v-512c0-17.696-14.304-32-32-32h-96c-17.696 0-32 14.304-32 32v512zM64.736 401.12c0.64 15.808 7.264 46.88 63.264 46.88 48 0 64 0 64 0 8.864 0 16 7.168 16 16s-7.136 16-16 16c0 0-14.016 0-62.016 0s-54.304 39.808-51.2 59.008c3.968 23.872 15.168 68.992 69.216 68.992 53.984 0 76 0 76 0 8.864 0 16 7.136 16 16 0 8.8-7.136 16-16 16 0 0-38.016 0-63.008 0-54.016 0-49.248 41.184-41.504 65.76 10.208 32.288 16.448 62.24 84.512 62.24 23.008 0 52.192 0 52.192 0 8.864 0 16 7.136 16 16 0 8.8-7.136 16-16 16 0 0-22.176 0-50.176 0-35.008 0-36.64 33.12-32.992 44.992 4 12.992 8.736 22.624 8.928 23.072 9.664 17.44 25.248 27.936 58.24 27.936h174.944c87.872 0 175.040-19.936 177.28-20.448 132.928-30.624 139.936-32.992 148.288-35.36 0 0 27.072-4.576 27.072-28.192l0.224-441.984c0-15.008-9.568-28.576-25.408-33.344-1.984-0.768-4.672-1.6-6.592-2.4-146.176-60.544-190.688-193.28-192-302.272-0.192-15.328-12-32-32-32-33.824 0-93.632 67.904-93.632 151.936 0 75.872 3.072 88.992 29.632 168.064-320 0-317.76 4.608-345.984 12-35.008 10.016-38.016 39.008-38.016 48.992 0 10.976 0.32 9.376 0.736 20.128zM880 768c26.496 0 48 21.504 48 48s-21.504 48-48 48-48-21.504-48-48 21.504-48 48-48zM880 832c8.8 0 16-7.2 16-16s-7.2-16-16-16-16 7.2-16 16 7.2 16 16 16z" />
<glyph unicode="&#xe909;" glyph-name="lock" data-tags="lock" d="M554.667 320c0-23.564-19.103-42.667-42.667-42.667s-42.667 19.103-42.667 42.667c0 23.564 19.103 42.667 42.667 42.667s42.667-19.103 42.667-42.667zM512 149.333c-11.797 0-21.333 9.536-21.333 21.333v128c0 11.797 9.536 21.333 21.333 21.333s21.333-9.536 21.333-21.333v-128c0-11.797-9.536-21.333-21.333-21.333zM896-64h-768v640h768v-640zM170.667-21.333h682.667v554.667h-682.667v-554.667zM768 554.667h-42.667v149.333c0 117.632-95.701 213.333-213.333 213.333s-213.333-95.701-213.333-213.333v-149.333h-42.667v149.333c0 141.163 114.837 256 256 256s256-114.837 256-256v-149.333z" />
<glyph unicode="&#xe90a;" glyph-name="love" data-tags="love" d="M512-42.688c-3.691 0-7.381 0.96-10.688 2.88-5.099 2.944-126.144 73.536-249.131 187.264-167.339 154.731-252.181 307.627-252.181 454.421 0 197.867 133.952 288 258.411 288 95.979 0 203.307-54.869 253.589-175.552 50.283 120.683 157.632 175.552 253.589 175.552 124.459 0 258.411-90.133 258.411-288 0-146.795-84.843-299.691-252.181-454.421-122.987-113.728-244.032-184.341-249.131-187.264-3.307-1.92-6.997-2.88-10.688-2.88zM258.411 847.211c-103.915 0-215.744-76.779-215.744-245.333 0-295.744 398.379-554.581 469.333-598.315 70.891 43.755 469.333 302.784 469.333 598.315 0 168.555-111.829 245.333-215.744 245.333-95.424 0-204.373-65.323-232.64-211.264-1.941-10.027-10.731-17.28-20.949-17.28s-19.008 7.253-20.949 17.28c-28.267 145.92-137.216 211.264-232.64 211.264z" />
<glyph unicode="&#xe90b;" glyph-name="tag" data-tags="tag" d="M1023.94 426.116v-0.468c0-7.124-3.562-13.202-8.794-17.276l-421.623-421.623c-8.482-8.482-22.218-8.482-30.744 0-8.482 8.504-8.482 22.262 0 30.744l416.636 416.636v147.353c0 12.289 9.996 22.262 22.262 22.262 12.311 0 22.262-9.973 22.262-22.262v-155.234c0-0.045 0-0.067 0-0.134zM418.633-54.568c-0.713-1.069-1.18-2.271-2.115-3.206-4.386-4.363-10.173-6.39-15.917-6.256-5.744-0.134-11.532 1.892-15.917 6.256-0.935 0.935-1.381 2.137-2.115 3.206l-373.136 373.158c-1.069 0.713-2.249 1.18-3.206 2.115-4.386 4.386-6.367 10.152-6.256 15.895-0.134 5.744 1.87 11.532 6.256 15.917 0.957 0.935 2.137 1.381 3.206 2.115l507.488 507.488c4.074 5.209 10.13 8.794 17.253 8.794h0.468c0.045 0 0.089 0 0.134 0h89.694c2.961 33.438 16.608 62.779 37.178 81.992l0.356-0.401c4.341 4.608 10.307 7.458 16.875 7.458 13.179 0 23.865-11.399 23.865-25.446 0-8.348-4.007-15.383-9.818-20.014-10.664-9.84-18.255-25.357-20.792-43.59h106.302c0.045 0 0.089 0 0.178 0h0.446c7.124 0 13.224-3.562 17.253-8.794l129.788-129.788c5.209-4.074 8.794-10.152 8.794-17.276v-0.468c0-0.045 0-0.089 0-0.134v-243.659c0-0.045 0-0.089 0-0.155v-0.468c0-7.124-3.562-13.202-8.794-17.253l-507.465-507.488zM890.367 706.575l-119.793 119.793h-93.79c3.918-9.884 9.439-18.299 16.14-24.489v0c0.913-0.735 2.048-1.18 2.827-2.048l0.401 0.401c23.175-21.661 38.402-55.833 38.402-94.703 0-0.935-0.222-1.758-0.267-2.671 26.648-15.383 44.792-43.857 44.792-76.849 0-49.177-39.872-89.048-89.048-89.048s-89.048 39.872-89.048 89.048c0 47.797 37.734 86.488 85.041 88.648-2.004 19.769-9.818 36.688-21.126 47.151-0.913 0.735-2.048 1.18-2.872 2.048l-0.356-0.401c-16.563 15.473-28.785 37.512-34.573 62.913h-84.44l-489.767-489.767 347.712-347.712 489.767 489.767v227.92zM664.874 649.228c5.521 5.098 10.040 11.955 13.736 19.657-19.034-5.076-33.126-22.262-33.126-42.855 0-24.577 19.947-44.525 44.525-44.525 24.599 0 44.525 19.947 44.525 44.525 0 10.53-3.785 20.058-9.906 27.694-13.691-34.395-28.874-42.498-28.874-42.498-4.296-4.608-10.263-7.435-16.875-7.435-13.179 0-23.821 11.399-23.821 25.446 0 8.303 3.985 15.339 9.818 19.991zM251.132 374.78c8.504 8.482 22.262 8.482 30.744 0l156.926-156.926c8.482-8.482 8.482-22.24 0-30.744-8.482-8.482-22.262-8.482-30.744 0l-156.926 156.926c-8.482 8.482-8.482 22.24 0 30.744zM340.18 463.828c8.504 8.482 22.262 8.482 30.744 0l156.926-156.926c8.46-8.482 8.46-22.24 0-30.744-8.482-8.482-22.262-8.482-30.744 0l-156.926 156.926c-8.482 8.482-8.482 22.24 0 30.744z" />
<glyph unicode="&#xe90c;" glyph-name="equalizer" data-tags="params, equalizer, preferences, settings, options" d="M256 767.328v96.672c0 52.928-43.072 96-96 96s-96-43.072-96-96v-96.672c-38.656-29.28-64-75.136-64-127.328s25.344-98.048 64-127.264v-480.736c0-52.928 43.072-96 96-96s96 43.072 96 96v480.736c38.656 29.184 64 75.072 64 127.264s-25.344 98.048-64 127.328zM128 864c0 17.696 14.304 32 32 32s32-14.304 32-32v-67.2c-10.336 2.080-21.024 3.2-32 3.2s-21.664-1.12-32-3.2v67.2zM192 32c0-17.696-14.304-32-32-32s-32 14.304-32 32v451.264c10.336-2.144 21.024-3.264 32-3.264s21.664 1.12 32 3.264v-451.264zM251.68 613.12c-0.512-1.696-0.96-3.36-1.568-5.056-3.040-8.448-6.944-16.448-12.096-23.552-0.128-0.192-0.32-0.32-0.448-0.512-5.568-7.616-12.192-14.368-19.712-20.064-0.128-0.128-0.224-0.192-0.32-0.256-7.712-5.824-16.32-10.496-25.568-13.76-10.016-3.616-20.672-5.92-31.968-5.92s-21.952 2.304-32 5.952c-9.248 3.264-17.856 7.936-25.568 13.76-0.096 0.064-0.192 0.128-0.32 0.256-7.52 5.696-14.144 12.448-19.712 20.064-0.128 0.192-0.32 0.32-0.448 0.512-5.152 7.136-9.056 15.136-12.096 23.552-0.608 1.696-1.056 3.36-1.568 5.056-2.528 8.544-4.288 17.472-4.288 26.848 0 9.44 1.76 18.368 4.32 26.944 0.512 1.696 0.96 3.36 1.568 4.992 3.008 8.448 6.912 16.448 12.096 23.616 0.128 0.192 0.32 0.32 0.448 0.512 5.568 7.552 12.192 14.368 19.712 20.064 0.128 0.064 0.224 0.192 0.32 0.256 7.68 5.728 16.288 10.432 25.536 13.728 10.048 3.584 20.704 5.888 32 5.888s21.952-2.304 32-5.888c9.248-3.328 17.856-8 25.568-13.76 0.096-0.064 0.192-0.192 0.32-0.256 7.52-5.696 14.144-12.512 19.712-20.064 0.128-0.192 0.32-0.32 0.448-0.512 5.152-7.136 9.056-15.136 12.064-23.584 0.608-1.632 1.088-3.296 1.568-4.992 2.56-8.576 4.32-17.504 4.32-26.944 0-9.376-1.76-18.304-4.32-26.88zM960 767.328v96.672c0 52.928-43.072 96-96 96s-96-43.072-96-96v-96.672c-38.688-29.28-64-75.136-64-127.328s25.312-98.048 64-127.264v-480.736c0-52.928 43.072-96 96-96s96 43.072 96 96v480.736c38.624 29.184 64 75.072 64 127.264s-25.376 98.048-64 127.328zM832 864c0 17.696 14.304 32 32 32s32-14.304 32-32v-67.2c-10.368 2.080-21.056 3.2-32 3.2-11.008 0-21.696-1.12-32-3.2v67.2zM896 32c0-17.696-14.304-32-32-32s-32 14.304-32 32v451.264c10.304-2.144 20.992-3.264 32-3.264 10.944 0 21.632 1.12 32 3.264v-451.264zM955.68 613.12c-0.512-1.696-0.992-3.36-1.568-5.056-3.072-8.448-6.944-16.448-12.128-23.552-0.128-0.192-0.32-0.32-0.448-0.512-5.568-7.616-12.192-14.368-19.68-20.064-0.128-0.128-0.256-0.192-0.32-0.256-7.744-5.824-16.32-10.496-25.568-13.76-10.016-3.616-20.704-5.92-31.968-5.92-11.328 0-21.952 2.304-32 5.952-9.248 3.264-17.888 7.936-25.568 13.76-0.128 0.064-0.192 0.128-0.32 0.256-7.552 5.696-14.176 12.448-19.744 20.064-0.128 0.192-0.32 0.32-0.448 0.512-5.12 7.136-9.056 15.136-12.064 23.552-0.64 1.696-1.056 3.36-1.568 5.056-2.528 8.544-4.288 17.472-4.288 26.848 0 9.44 1.76 18.368 4.32 26.944 0.512 1.696 0.928 3.36 1.568 4.992 3.008 8.448 6.944 16.448 12.064 23.616 0.128 0.192 0.32 0.32 0.448 0.512 5.568 7.552 12.192 14.368 19.744 20.064 0.128 0.064 0.192 0.192 0.32 0.256 7.68 5.76 16.32 10.432 25.568 13.76 10.016 3.552 20.64 5.856 31.968 5.856 11.264 0 21.952-2.304 32-5.888 9.248-3.328 17.824-8 25.568-13.76 0.064-0.064 0.192-0.192 0.32-0.256 7.488-5.696 14.112-12.512 19.68-20.064 0.128-0.192 0.32-0.32 0.448-0.512 5.184-7.2 9.056-15.2 12.128-23.616 0.576-1.632 1.056-3.328 1.568-4.992 2.528-8.544 4.288-17.472 4.288-26.912 0-9.376-1.76-18.304-4.32-26.88zM608 383.328v480.672c0 52.928-43.072 96-96 96s-96-43.072-96-96v-480.672c-38.656-29.248-64-75.136-64-127.328s25.344-98.048 64-127.264v-96.736c0-52.928 43.072-96 96-96s96 43.072 96 96v96.736c38.624 29.184 64 75.072 64 127.264s-25.376 98.048-64 127.328zM480 864c0 17.696 14.304 32 32 32s32-14.304 32-32v-451.2c-10.368 2.048-21.056 3.2-32 3.2-10.976 0-21.664-1.12-32-3.2v451.2zM544 32c0-17.696-14.304-32-32-32s-32 14.304-32 32v67.264c10.336-2.144 21.024-3.264 32-3.264 10.944 0 21.632 1.12 32 3.264v-67.264zM603.68 229.12c-0.512-1.696-0.992-3.36-1.568-5.056-3.072-8.448-6.944-16.448-12.128-23.552-0.128-0.192-0.32-0.32-0.448-0.512-5.568-7.616-12.192-14.368-19.68-20.064-0.128-0.128-0.256-0.192-0.32-0.256-7.744-5.824-16.32-10.496-25.568-13.76-10.016-3.616-20.704-5.92-31.968-5.92-11.296 0-21.952 2.304-32 5.952-9.248 3.264-17.856 7.936-25.568 13.76-0.096 0.064-0.192 0.128-0.32 0.256-7.52 5.696-14.144 12.448-19.712 20.064-0.128 0.192-0.32 0.32-0.448 0.512-5.152 7.136-9.056 15.136-12.096 23.552-0.608 1.696-1.056 3.36-1.568 5.056-2.528 8.544-4.288 17.472-4.288 26.848 0 9.44 1.76 18.368 4.32 26.944 0.512 1.696 0.96 3.36 1.568 4.992 3.040 8.448 6.944 16.448 12.096 23.616 0.128 0.192 0.32 0.32 0.448 0.512 5.568 7.552 12.192 14.368 19.712 20.064 0.128 0.064 0.224 0.192 0.32 0.256 7.712 5.76 16.32 10.432 25.568 13.76 10.016 3.552 20.672 5.856 31.968 5.856 11.264 0 21.952-2.304 32-5.888 9.248-3.328 17.824-8 25.568-13.76 0.064-0.064 0.192-0.192 0.32-0.256 7.488-5.696 14.112-12.512 19.68-20.064 0.128-0.192 0.32-0.32 0.448-0.512 5.184-7.2 9.056-15.2 12.128-23.616 0.576-1.632 1.056-3.328 1.568-4.992 2.528-8.544 4.288-17.472 4.288-26.912 0-9.376-1.76-18.304-4.32-26.88z" />
<glyph unicode="&#xe90d;" glyph-name="cog" data-tags="settings, cog, preferences" d="M972.512 554.24l-98.048 19.648c-4.928 14.176-10.752 27.936-17.184 41.248l55.552 83.328c16.928 25.376 13.568 59.2-8 80.736l-61.568 61.568c-12.384 12.384-28.736 18.752-45.312 18.752-12.256 0-24.64-3.52-35.424-10.752l-83.328-55.52c-13.376 6.464-27.136 12.224-41.312 17.152l-19.648 98.080c-5.952 29.952-32.256 51.456-62.752 51.456h-87.040c-30.496 0-56.768-21.536-62.752-51.456l-19.648-98.080c-14.176-4.928-27.936-10.72-41.248-17.152l-83.296 55.52c-10.848 7.232-23.2 10.752-35.488 10.752-16.544 0-32.896-6.368-45.28-18.752l-61.536-61.568c-21.568-21.568-24.928-55.36-8-80.736l55.52-83.328c-6.464-13.344-12.224-27.104-17.152-41.28l-98.112-19.616c-29.92-5.984-51.456-32.256-51.456-62.752v-87.040c0-30.496 21.536-56.8 51.456-62.752l98.080-19.68c4.928-14.176 10.72-27.936 17.152-41.248l-55.488-83.328c-16.928-25.376-13.568-59.2 8-80.736l61.568-61.568c12.384-12.384 28.736-18.752 45.28-18.752 12.288 0 24.672 3.552 35.456 10.752l83.328 55.552c13.344-6.496 27.104-12.256 41.28-17.184l19.616-98.048c5.984-29.952 32.256-51.488 62.752-51.488h87.040c30.496 0 56.8 21.568 62.752 51.488l19.68 98.048c14.176 4.928 27.936 10.752 41.248 17.184l83.328-55.552c10.816-7.2 23.2-10.752 35.424-10.752 16.576 0 32.928 6.368 45.312 18.752l61.568 61.568c21.568 21.568 24.928 55.36 8 80.736l-55.552 83.328c6.496 13.376 12.256 27.136 17.184 41.312l98.048 19.616c29.92 5.92 51.488 32.256 51.488 62.752v87.040c0 30.496-21.568 56.768-51.488 62.752zM861.888 384.8c-22.24-4.448-40.448-20.32-47.872-41.76-4.128-11.808-8.928-23.264-14.304-34.368-9.952-20.448-8.256-44.576 4.32-63.424l55.552-83.328-61.568-61.568-83.328 55.552c-10.688 7.136-23.072 10.752-35.488 10.752-9.504 0-19.072-2.112-27.872-6.368-11.136-5.376-22.56-10.24-34.432-14.368-21.376-7.424-37.248-25.632-41.696-47.872l-19.68-98.112h-87.040l-19.616 98.112c-4.448 22.24-20.32 40.448-41.728 47.872-11.808 4.128-23.296 8.928-34.4 14.304-8.832 4.32-18.368 6.432-27.904 6.432-12.448 0-24.8-3.616-35.488-10.752l-83.328-55.552-61.568 61.568 55.52 83.328c12.576 18.88 14.208 43.008 4.384 63.36-5.376 11.136-10.208 22.56-14.336 34.432-7.424 21.376-25.664 37.248-47.872 41.696l-98.080 19.68-0.064 87.072 98.112 19.616c22.208 4.448 40.448 20.32 47.872 41.728 4.128 11.808 8.896 23.296 14.304 34.4 9.92 20.416 8.256 44.544-4.352 63.392l-55.488 83.328 61.536 61.568 83.328-55.52c10.688-7.136 23.072-10.752 35.488-10.752 9.504 0 19.040 2.112 27.872 6.368 11.104 5.376 22.56 10.208 34.4 14.336 21.408 7.424 37.28 25.664 41.728 47.872l19.648 98.080 87.040 0.032 19.616-98.112c4.448-22.208 20.32-40.448 41.76-47.872 11.808-4.128 23.264-8.896 34.368-14.304 8.864-4.288 18.368-6.4 27.936-6.4 12.448 0 24.8 3.616 35.488 10.752l83.328 55.52 61.568-61.568-55.552-83.328c-12.576-18.88-14.176-42.976-4.384-63.36 5.376-11.104 10.24-22.56 14.368-34.4 7.424-21.408 25.632-37.28 47.872-41.728l98.048-19.648 0.096-87.040-98.112-19.648zM512 671.968c-123.68 0-224-100.32-224-224 0-123.712 100.32-224 224-224s224 100.32 224 224c0 123.68-100.32 224-224 224zM512 251.936c-108.224 0-196 87.808-196 196 0 108.224 87.776 196 196 196 108.192 0 196-87.776 196-196 0-108.192-87.808-196-196-196zM512 575.968c-70.72 0-128-57.28-128-128 0-70.688 57.28-128 128-128 70.688 0 128 57.312 128 128s-57.312 128-128 128zM512 351.936c-52.992 0-96 43.008-96 96s43.008 96 96 96 96-43.008 96-96c0-52.992-43.008-96-96-96z" />
<glyph unicode="&#xe90e;" glyph-name="shipping" data-tags="shipping" d="M695.902 768.183v12.124c0 17.666-14.332 31.997-31.997 31.997h-631.908c-17.666 0-31.997-14.332-31.997-31.997v-579.287c0-17.666 14.332-31.997 31.997-31.997h132.026c14.030-49.090 58.792-85.326 112.329-85.326s98.299 36.237 112.329 85.326h328.838c14.030-49.090 58.792-85.326 112.329-85.326s98.299 36.237 112.329 85.326h42.408c1.315 0 2.435 0.596 3.708 0.75 1.273-0.154 2.393-0.75 3.708-0.75 17.666 0 31.997 14.332 31.997 31.997v244.877c0 168.797-144.493 307.657-328.099 322.287zM958.774 467.228h-120.175c-30.665 8.395-36.872 63.307-36.872 148.822v59.555c87.207-40.429 148.603-117.881 157.047-208.377zM759.064 691.632v-75.582c0-92.742 5.541-177.131 72.702-191.047 1.417-0.291 2.875-0.438 4.333-0.438h123.907v-191.547h-17.827c-14.030 49.090-58.792 85.326-112.329 85.326s-98.299-36.237-112.329-85.326h-328.838c-4.747 16.608-12.949 31.604-23.956 44.33h299.179c8.59 0 15.881 5.132 19.264 12.442 7.555 5.856 12.734 14.598 12.734 24.889v389.388c21.884-2.072 42.963-6.395 63.162-12.434zM631.907 320.010h-567.913v428.3h567.913v-428.3zM63.994 277.347h123.985c-11.007-12.726-19.209-27.721-23.956-44.33h-100.028v44.33zM276.353 147.69c-29.414 0-53.329 23.915-53.329 53.329s23.915 53.329 53.329 53.329c29.378 0 53.251-23.863 53.309-53.225 0-0.037-0.021-0.067-0.021-0.104s0.021-0.067 0.021-0.104c-0.057-29.362-23.93-53.225-53.309-53.225zM829.85 147.69c-29.414 0-53.329 23.915-53.329 53.329s23.915 53.329 53.329 53.329 53.329-23.915 53.329-53.329-23.915-53.329-53.329-53.329z" />
<glyph unicode="&#xe90f;" glyph-name="pencil" data-tags="pencil, write" d="M978.147 662.020c-1.024-2.205-2.272-4.321-4.076-6.147l-621.545-621.523c-2.427-4.188-5.791-7.84-10.579-9.667l-308.523-86.418c-0.646-0.312-1.381-0.356-2.093-0.579l-1.047-0.312c-0.179-0.067-0.379-0.022-0.535-0.089-2.093-0.556-4.165-1.024-6.37-1.002-2.183-0.067-4.21 0.334-6.281 0.914-0.468 0.134-0.891 0.045-1.358 0.2-0.179 0.067-0.289 0.222-0.468 0.289-1.96 0.735-3.653 1.849-5.345 3.14-0.869 0.623-1.782 1.181-2.517 1.916s-1.291 1.649-1.916 2.517c-1.291 1.67-2.384 3.386-3.14 5.345-0.089 0.179-0.222 0.289-0.289 0.468-0.156 0.446-0.067 0.891-0.2 1.358-0.556 2.049-0.957 4.098-0.914 6.259 0 2.227 0.446 4.298 1.002 6.393 0.089 0.179 0.022 0.356 0.089 0.513l0.312 1.091c0.245 0.668 0.289 1.403 0.579 2.071l86.418 308.523c1.826 4.811 5.479 8.107 9.667 10.579l612.035 612.057c0.891 1.002 1.938 1.849 2.851 2.828l6.66 6.66c0.334 0.334 0.757 0.446 1.114 0.757 32.162 30.736 75.326 50.114 123.369 50.114 98.98 0 179.229-80.249 179.229-179.229 0-45.904-17.707-87.354-46.127-119.026zM893.979 637.319l-80.605 80.605-526.529-526.551c0.089-0.179 0.312-0.245 0.401-0.423l52.853-107.511 553.88 553.88zM56.721-7.991l62.029 17.351-44.68 44.657-17.351-62.008zM87.547 102.103l79.247-79.269 136.31 38.198c0 0-57.598 119.65-57.686 119.694l-119.694 57.686-38.175-136.31zM255.64 222.51c0.179-0.089 0.245-0.289 0.423-0.401l526.551 526.574-80.605 80.605-553.88-553.88 107.511-52.898zM844.355 915.729c-39.69 0-75.104-17.284-99.982-44.412l-0.156 0.156-11.448-11.426 191.969-191.969 11.738 11.76-0.134 0.134c26.928 24.856 44.078 60.159 44.078 99.693 0 75.149-60.917 136.064-136.064 136.064z" />
<glyph unicode="&#xe910;" glyph-name="star" data-tags="star, favorite" d="M1020.193 574.176c-8.864 25.568-31.616 44.288-59.008 48.352l-266.432 39.616-115.808 240.448c-12.192 25.248-38.272 41.408-66.944 41.408s-54.752-16.16-66.944-41.408l-115.808-240.448-266.464-39.616c-27.36-4.064-50.112-22.784-58.944-48.352-8.8-25.632-2.144-53.856 17.184-73.12l195.264-194.944-45.28-270.432c-4.608-27.232 7.2-54.56 30.336-70.496 12.704-8.736 27.648-13.184 42.592-13.184 12.288 0 24.608 3.008 35.776 8.992l232.288 125.056 232.32-125.056c11.168-5.984 23.488-8.992 35.744-8.992 14.944 0 29.888 4.448 42.624 13.184 23.136 15.936 34.88 43.264 30.304 70.496l-45.312 270.432 195.328 194.944c19.296 19.296 25.92 47.52 17.184 73.12zM754.817 356.384c-16.384-16.32-23.808-39.328-20.064-61.888l45.312-270.432-232.32 124.992c-11.136 6.016-23.424 8.992-35.776 8.992-12.288 0-24.608-3.008-35.744-8.992l-232.32-124.992 45.312 270.432c3.776 22.56-3.648 45.568-20.032 61.888l-195.264 194.944 266.432 39.68c24.352 3.616 45.312 18.848 55.776 40.576l115.872 240.384 115.84-240.416c10.496-21.728 31.424-36.928 55.744-40.576l266.496-39.68-195.264-194.912z" />
<glyph unicode="&#xe911;" glyph-name="like" data-tags="like, thumbs up, approve" d="M933.248 624.896c-40 10.496-134.048 10.368-271.616 14.016 6.496 30.016 8 57.088 8 105.152 0 114.816-83.648 215.936-157.632 215.936-52.256 0-95.328-42.72-96-95.264-0.704-64.448-20.64-175.744-128-232.192-7.872-4.16-30.4-15.264-33.696-16.704l1.696-1.44c-16.8 14.496-40.096 25.6-64 25.6h-96c-52.928 0-96-43.072-96-96v-512c0-52.928 43.072-96 96-96h96c38.080 0 69.952 23.008 85.376 55.264 0.384-0.128 1.056-0.32 1.504-0.384 2.112-0.576 4.608-1.184 7.648-1.984 0.576-0.16 0.864-0.224 1.472-0.384 18.432-4.576 53.92-13.056 129.76-30.496 16.256-3.712 102.144-22.016 191.104-22.016h174.944c53.312 0 91.744 20.512 114.624 61.696 0.32 0.64 7.68 15.008 13.696 34.432 4.512 14.624 6.176 35.328 0.736 56.32 34.368 23.616 45.44 59.328 52.64 82.56 12.064 38.112 8.448 66.752 0.064 87.264 19.328 18.24 35.808 46.048 42.752 88.512 4.32 26.304-0.32 53.376-12.448 75.904 18.112 20.352 26.368 45.952 27.328 69.632l0.384 6.688c0.224 4.192 0.416 6.784 0.416 16 0 40.416-28 91.968-90.752 109.888zM224 32c0-17.696-14.304-32-32-32h-96c-17.696 0-32 14.304-32 32v512c0 17.696 14.304 32 32 32h96c17.696 0 32-14.304 32-32v-512zM959.264 494.88c-0.64-15.808-7.264-46.88-63.264-46.88-48 0-64 0-64 0-8.864 0-16-7.168-16-16s7.136-16 16-16c0 0 14.016 0 62.016 0s54.304-39.808 51.2-59.008c-3.968-23.872-15.168-68.992-69.216-68.992-53.984 0-76 0-76 0-8.864 0-16-7.136-16-16 0-8.8 7.136-16 16-16 0 0 38.016 0 63.008 0 54.016 0 49.248-41.184 41.504-65.76-10.208-32.288-16.448-62.24-84.512-62.24-23.008 0-52.192 0-52.192 0-8.864 0-16-7.136-16-16 0-8.8 7.136-16 16-16 0 0 22.176 0 50.176 0 35.008 0 36.64-33.12 32.992-44.992-4-12.992-8.736-22.624-8.928-23.072-9.664-17.44-25.248-27.936-58.24-27.936h-174.944c-87.872 0-175.040 19.936-177.28 20.448-132.928 30.624-139.936 32.992-148.288 35.36 0 0-27.072 4.576-27.072 28.192l-0.224 441.984c0 15.008 9.568 28.576 25.408 33.344 1.984 0.768 4.672 1.6 6.592 2.4 146.176 60.544 190.688 193.28 192 302.272 0.192 15.328 12 32 32 32 33.824 0 93.632-67.904 93.632-151.936 0-75.872-3.072-88.992-29.632-168.064 320 0 317.76-4.608 345.984-12 35.008-10.016 38.016-39.008 38.016-48.992 0-10.976-0.32-9.376-0.736-20.128zM144 128c-26.496 0-48-21.504-48-48s21.504-48 48-48 48 21.504 48 48-21.504 48-48 48zM144 64c-8.8 0-16 7.2-16 16s7.2 16 16 16 16-7.2 16-16-7.2-16-16-16z" />
<glyph unicode="&#xe912;" glyph-name="account" data-tags="user" d="M512-64c-282.77 0-512 229.23-512 512s229.23 512 512 512 512-229.23 512-512-229.23-512-512-512zM795.624 82.286c-3.827 5.632-8.655 12.63-12.531 18.090-6.753 9.606-13.507 19.213-19.553 28.721-0.293 0.439-33.695 45.251-154.015 50.712-41.862 0-72.289 31.402-72.362 74.752l-0.781 22.771c0 3.291-0.39-3.608 0 0v24.381l24.381 24.381c17.823 8.265 40.472 22.162 58.392 35.694l3.291 2.267c14.166 8.997 33.962 27.941 35.84 35.182l0.878 9.289c9.094 46.885 23.503 132.169 23.503 161.377 0 114.834-55.832 170.666-170.666 170.666-116.419 0-170.666-54.223-170.666-170.666 0-29.989 14.409-114.858 23.479-161.304l0.854-8.582c1.536-7.631 19.48-25.697 35.328-35.645l2.39-1.512c19.213-13.434 42.179-28.403 59.855-36.767l24.381-24.381v-24.381c0.342-3.365 0 3.56 0 0l-0.805-22.771c0-43.277-30.378-74.703-70.29-74.703-0.024 0-0.049 0-0.073 0-120.832-4.901-155.867-50.639-155.917-50.639-6.144-9.655-12.873-19.237-19.675-28.867-3.827-5.462-8.655-12.434-12.507-18.066 78.433-60.904 176.64-97.523 283.624-97.523s205.215 36.621 283.648 97.523zM512 911.238c-255.83 0-463.238-207.409-463.238-463.238 0-131.315 54.857-249.587 142.629-333.873 9.313 13.775 19.261 27.526 28.038 41.302 0 0 40.717 66.877 195.048 73.143 15.726 0 23.576 10.289 23.576 25.99h0.024c-0.024 12.703-0.024 22.771-0.024 22.771 0 3.169-0.512 6.022-0.658 9.094-17.651 8.338-38.131 19.846-61.903 36.425 0 0-58.514 35.986-58.514 76.385 0 0-24.381 124.733-24.381 170.666 0 113.225 48.421 219.429 219.429 219.429 168.717 0 219.429-106.203 219.429-219.429 0-44.813-24.381-170.666-24.381-170.666 0-39.278-58.514-76.385-58.514-76.385-23.283-17.578-43.91-29.306-62.001-37.693-0.122-2.657-0.561-5.096-0.561-7.826 0 0-0.024-10.070-0.024-22.771h0.024c-0.049-15.702 7.802-25.99 23.528-25.99 156.623-7.022 195.048-73.143 195.048-73.143 8.777-13.775 18.701-27.526 28.014-41.302 87.771 84.285 142.653 202.557 142.653 333.873 0 255.83-207.409 463.238-463.238 463.238z" />
<glyph unicode="&#xe913;" glyph-name="eye" data-tags="eye, vision, view" d="M1022.88 455.168c-0.32 1.344-0.128 2.784-0.64 4.096-0.192 0.544-0.672 0.832-0.864 1.344-0.32 0.768-0.256 1.632-0.672 2.368-92.8 177.632-294.816 304.896-507.936 304.896-213.152 0-415.136-127.072-508-304.672-0.416-0.736-0.352-1.6-0.672-2.368-0.224-0.512-0.672-0.8-0.864-1.344-0.512-1.312-0.32-2.752-0.64-4.096-0.576-2.4-1.12-4.704-1.12-7.168s0.576-4.736 1.12-7.168c0.32-1.344 0.128-2.784 0.64-4.096 0.192-0.544 0.672-0.832 0.864-1.344 0.32-0.768 0.256-1.632 0.672-2.368 92.832-177.632 294.848-304.896 508-304.896 213.12 0 415.136 127.072 507.936 304.672 0.448 0.736 0.384 1.6 0.672 2.368 0.192 0.512 0.672 0.8 0.864 1.344 0.512 1.312 0.32 2.752 0.64 4.096 0.544 2.432 1.12 4.736 1.12 7.168s-0.576 4.768-1.12 7.168zM512.736 192.384c-179.68 0-355.584 102.112-443.232 255.84 88.128 153.92 263.776 255.68 443.232 255.68 179.616 0 355.552-102.144 443.2-255.84-88.128-153.952-263.744-255.68-443.2-255.68zM512.736 576.032c8.832 0 15.936-7.136 15.936-16 0-8.8-7.136-15.968-15.936-15.968v-0.032c-52.928 0-95.968-43.040-95.968-95.904 0-8.832-7.168-16-15.968-16-8.832 0-16 7.168-16 16 0 70.56 57.184 127.744 127.744 127.872 0.064 0 0.128 0.032 0.192 0.032zM512 672c-123.744 0-224-100.288-224-224s100.288-224 224-224c123.68 0 224 100.32 224 224 0 123.744-100.32 224-224 224zM512 256c-105.888 0-192 86.112-192 192s86.112 192 192 192c105.888 0 192-86.112 192-192s-86.112-192-192-192z" />
<glyph unicode="&#xe914;" glyph-name="home" data-tags="home" d="M896-64h-298.667v277.333h-170.667v-277.333h-298.667v448c0 11.776 9.536 21.333 21.333 21.333s21.333-9.557 21.333-21.333v-405.333h213.333v277.333h256v-277.333h213.333v384c0 11.776 9.536 21.333 21.333 21.333s21.333-9.557 21.333-21.333v-426.667zM1002.667 384c-5.312 0-10.603 1.963-14.741 5.909l-475.925 455.232-475.925-455.232c-8.512-8.128-22.016-7.851-30.165 0.661s-7.829 22.016 0.661 30.165l505.429 483.456 505.408-483.435c8.491-8.149 8.811-21.653 0.661-30.165-4.181-4.373-9.771-6.592-15.403-6.592zM832 640c-11.797 0-21.333 9.557-21.333 21.333v128h-128c-11.797 0-21.333 9.557-21.333 21.333s9.536 21.333 21.333 21.333h170.667v-170.667c0-11.776-9.536-21.333-21.333-21.333z" />
<glyph unicode="&#xe915;" glyph-name="edit" data-tags="document-edit" d="M883.536 608.725l-425.359-425.862-98.199 98.199 425.58 425.641 97.978-97.978zM910.17 635.391l-97.964 97.964 65.1 65.109c14.749 14.751 38.591 14.637 53.388-0.12l44.465-44.343c14.77-14.729 14.879-38.648 0.18-53.363l-65.17-65.247zM335.566 252.176l94.045-94.045-118.149-23.267 24.103 117.312zM716.078 689.768v0l-226.13 263.818h-414.468c-41.687 0-75.48-33.857-75.48-75.653v-866.28c0-41.782 33.578-75.653 75.28-75.653h565.52c41.576 0 75.28 33.852 75.28 75.029v377.231l285.681 285.681c29.555 29.555 29.627 77.401 0.364 106.664l-44.453 44.453c-29.355 29.355-76.789 29.511-106.664-0.364l-134.928-134.928zM678.39 350.573v-339.444c0-20.67-16.873-37.44-37.687-37.44h-565.329c-20.55 0-37.687 16.797-37.687 37.518v867.175c0 20.359 16.8 37.518 37.521 37.518h377.051v-188.219c0-42.187 33.712-75.599 75.298-75.599h150.832l-376.884-376.884-37.688-188.442 188.442 37.688 226.13 226.13zM489.948 897.054l177.133-207.286h-139.568c-20.581 0-37.566 17.022-37.566 38.019v169.267z" />
<glyph unicode="&#xe916;" glyph-name="left2" data-tags="chevrons-left" d="M175.543 448l314.514 314.514c29.258 29.258 29.258 73.143 0 102.399s-73.143 29.258-102.399 0l-365.713-365.713c-29.258-29.258-29.258-73.143 0-102.399l365.713-365.713c14.628-14.628 36.571-21.943 51.2-21.943s36.571 7.315 51.2 21.943c29.258 29.258 29.258 73.143 0 102.399l-314.514 314.514zM687.542 448l314.514 314.514c29.258 29.258 29.258 73.143 0 102.399s-73.143 29.258-102.399 0l-365.713-365.713c-29.258-29.258-29.258-73.143 0-102.399l365.713-365.713c14.628-14.628 36.571-21.943 51.2-21.943s36.571 7.315 51.2 21.943c29.258 29.258 29.258 73.143 0 102.399l-314.514 314.514z" />
<glyph unicode="&#xe917;" glyph-name="save" data-tags="save" d="M746.667 960h-746.667v-1024h1024v798.166l-225.834 225.834h-51.499zM704 917.333v-298.667h-554.667v298.667h554.667zM981.333-21.333h-938.667v938.667h64v-341.333h640v341.333h33.834l200.832-200.832v-737.834zM213.333 42.667h597.333v362.667h-597.333v-362.667zM256 362.667h512v-277.333h-512v277.333zM597.333 853.333h42.667v-170.667h-42.667v170.667zM874.667 85.333h42.667v-42.667h-42.667v42.667zM106.667 85.333h42.667v-42.667h-42.667v42.667z" />
<glyph unicode="&#xe918;" glyph-name="android" data-tags="android" d="M0 448c0 282.77 229.23 512 512 512s512-229.23 512-512c0-282.77-229.23-512-512-512s-512 229.23-512 512zM61.44 448c0-248.837 201.723-450.56 450.56-450.56s450.56 201.723 450.56 450.56c0 248.837-201.723 450.56-450.56 450.56s-450.56-201.723-450.56-450.56zM436.729 655.858l-22.65 42.548c-2.742 5.15-0.955 11.64 3.991 14.495s11.179 0.994 13.921-4.156l23.222-43.622c17.413 7.228 36.613 11.233 56.787 11.233s39.374-4.005 56.787-11.233l23.222 43.622c2.742 5.15 8.974 7.011 13.92 4.156 4.947-2.855 6.734-9.344 3.992-14.495l-22.651-42.548c19.406-11.529 35.738-27.384 47.537-46.163 0.16-0.254 0.317-0.506 0.471-0.755 12.756-20.598 20.082-44.664 20.082-70.375 0-0.357-0.001-0.714-0.004-1.071 0.003-0.19 0.004-0.38 0.004-0.57v-1.264h-286.721v1.265c0 0.19 0.001 0.38 0.004 0.57-0.003 0.356-0.004 0.713-0.004 1.070 0 49.564 27.227 93.016 68.090 117.293zM620.701 274.466h-17.33v-73.816c0-21.743-16.927-39.369-37.809-39.369s-37.809 17.626-37.809 39.369v73.816h-31.508v-73.816c0-21.743-16.928-39.369-37.809-39.369s-37.809 17.626-37.809 39.369v73.816h-17.329c-19.141 0-34.659 16.158-34.659 36.088v219.433h286.721v-219.433c0-19.931-15.517-36.088-34.659-36.088zM362.338 359.766c0-21.743-16.927-39.369-37.809-39.369s-37.809 17.626-37.809 39.369v139.43c0 21.742 16.927 39.369 37.809 39.369s37.809-17.626 37.809-39.369v-139.43zM445.833 612.381c-3.48 0-6.301-2.937-6.301-6.561s2.821-6.561 6.301-6.561c3.48 0 6.301 2.937 6.301 6.561s-2.821 6.561-6.301 6.561zM737.28 359.766c0-21.743-16.928-39.369-37.81-39.369s-37.809 17.626-37.809 39.369v139.43c0 21.742 16.928 39.369 37.809 39.369s37.81-17.626 37.81-39.369v-139.43zM578.166 612.381c-3.48 0-6.301-2.937-6.301-6.561s2.821-6.561 6.301-6.561c3.48 0 6.301 2.937 6.301 6.561s-2.821 6.561-6.301 6.561z" />
<glyph unicode="&#xe919;" glyph-name="cart" data-tags="cart" d="M992 892.165h-120.999c-1.143 0-2.115-0.534-3.226-0.651-2.32-0.237-4.489-0.623-6.664-1.347-1.82-0.601-3.463-1.343-5.122-2.245-1.909-1.039-3.63-2.167-5.294-3.571-1.531-1.287-2.831-2.656-4.096-4.2-1.304-1.591-2.419-3.211-3.409-5.055-1.024-1.894-1.742-3.836-2.37-5.934-0.341-1.137-1.078-2.052-1.297-3.248l-18.326-100.154-783.088-45.763c-3 0.208-5.646-0.23-9-0.542-17.396-1.584-30.313-16.833-29.020-34.249 0.104-1.313 0.271-2.584 0.521-3.833l54.562-297.582c12.479-46.145 50.916-92.729 108.728-92.729h570.433l-12.213-66.749h-479.991c-60.77 0-110.229-49.458-110.229-110.229 0-60.791 49.458-110.249 110.229-110.249s110.229 49.458 110.229 110.249c0 16.56-3.935 32.122-10.508 46.229h294.744c-6.573-14.107-10.508-29.669-10.508-46.229 0-60.791 49.458-110.249 110.229-110.249s110.229 49.458 110.229 110.249c0 43.211-25.234 80.32-61.531 98.379l112.664 615.701h94.325c17.667 0 31.999 14.334 31.999 31.999s-14.334 31.999-31.999 31.999zM768.944 480.221l-135.604-2.13 7.385 78.588 142.994 4.287-14.776-80.745zM91.494 540.213l135.507 4.062 8.865-72.424-131.478-2.065-12.893 70.427zM269.807 545.559l148.945 4.463v-75.299l-140.002-2.2-8.943 73.036zM418.752 592.728l-154.153-4.623-9.849 80.443 164.002 9.589v-85.409zM461.419 680.632l148.917 8.708-8.563-91.124-140.354-4.209v86.625zM418.752 432.047v-76.985h-125.622l-9.167 74.867 134.789 2.117zM461.419 432.716l124.987 1.961-7.481-79.614h-117.504v77.653zM461.419 475.393v75.909l136.331 4.088-7.328-77.972-129.002-2.026zM791.577 603.905l-146.828-4.4 8.677 92.354 155.914 9.117-17.763-97.070zM212.089 666.054l9.7-79.229-138.075-4.14c-5.817 31.609-10.451 56.174-14.399 75.023l142.773 8.346zM117.546 397.896l-5.37 29.335 128.905 2.024 9.084-74.193h-86.266c-27.417 0-42.688 29.708-46.353 42.833zM621.78 355.063l7.544 80.289 131.788 2.070-15.070-82.359h-124.262zM288.357 114.084c0-25.499-20.73-46.249-46.229-46.249s-46.229 20.75-46.229 46.249 20.73 46.229 46.229 46.229 46.229-20.73 46.229-46.229zM736.314 67.835c-25.499 0-46.229 20.75-46.229 46.249s20.73 46.229 46.229 46.229 46.229-20.73 46.229-46.229-20.73-46.249-46.229-46.249z" />
<glyph unicode="&#xe91a;" glyph-name="left" data-tags="chevron-left" d="M394.971 448l387.657 387.657c29.258 29.258 29.258 73.143 0 102.4s-73.143 29.258-102.4 0l-438.857-438.857c-29.258-29.258-29.258-73.143 0-102.4l438.857-438.857c14.628-14.628 36.571-21.943 51.201-21.943s36.571 7.315 51.201 21.943c29.258 29.258 29.258 73.143 0 102.4l-387.657 387.657z" />
<glyph unicode="&#xe91b;" glyph-name="right2" data-tags="chevrons-right" d="M1002.057 499.2l-365.713 365.713c-29.258 29.258-73.143 29.258-102.399 0s-29.258-73.143 0-102.399l314.514-314.514-314.514-314.514c-29.258-29.258-29.258-73.143 0-102.399 14.628-14.628 36.571-21.943 51.2-21.943s36.571 7.315 51.2 21.943l365.713 365.713c29.258 29.258 29.258 73.143 0 102.399zM490.057 499.2l-365.713 365.713c-29.258 29.258-73.143 29.258-102.399 0s-29.258-73.143 0-102.399l314.514-314.514-314.514-314.514c-29.258-29.258-29.258-73.143 0-102.399 14.628-14.628 29.258-21.943 51.2-21.943s36.571 7.315 51.2 21.943l365.713 365.713c29.258 29.258 29.258 73.143 0 102.399z" />
<glyph unicode="&#xe91c;" glyph-name="apple" data-tags="apple" d="M1024 448c0-282.77-229.23-512-512-512s-512 229.23-512 512c0 282.77 229.23 512 512 512s512-229.23 512-512zM962.56 448c0 248.837-201.723 450.56-450.56 450.56s-450.56-201.723-450.56-450.56c0-248.837 201.723-450.56 450.56-450.56s450.56 201.723 450.56 450.56zM703.601 560.158c-29.549 44.010-75.577 50.039-91.98 50.736-39.172 4.037-76.434-23.474-96.316-23.474-19.83 0-50.508 22.877-82.995 22.276-42.696-0.646-82.065-25.269-104.050-64.19-44.362-78.349-11.36-194.42 31.876-257.963 21.127-31.101 46.32-66.038 79.396-64.79 31.853 1.294 43.898 20.979 82.409 20.979s49.334-20.979 83.044-20.335c34.275 0.648 55.992 31.699 76.973 62.898 24.262 36.084 34.252 71.019 34.84 72.813-0.761 0.353-66.839 26.118-67.501 103.567-0.636 64.842 51.952 95.939 54.302 97.484zM612.134 734.72c-25.288-1.048-55.941-17.145-74.083-38.775-16.281-19.188-30.529-49.813-26.711-79.218 28.23-2.243 57.047 14.602 74.623 36.232 17.555 21.679 29.404 51.756 26.172 81.761z" />
<glyph unicode="&#xe91d;" glyph-name="share" data-tags="share" d="M709.205 802.127c0 86.538 70.414 156.953 156.963 156.953 86.528 0 156.932-70.414 156.932-156.953 0-86.548-70.404-156.963-156.932-156.963-86.548 0-156.963 70.414-156.963 156.963zM982.203 802.127c0 63.994-52.052 116.055-116.035 116.055-64.004 0-116.066-52.062-116.066-116.055s52.062-116.066 116.066-116.066c63.983 0 116.035 52.072 116.035 116.066zM709.205 92.053c0 86.538 70.414 156.942 156.963 156.942 86.538 0 156.963-70.404 156.963-156.942 0-86.559-70.414-156.973-156.963-156.973s-156.963 70.414-156.963 156.973zM982.234 92.053c0 63.983-52.072 116.045-116.066 116.045-64.004 0-116.066-52.062-116.066-116.045 0-64.004 52.062-116.076 116.066-116.076 63.994 0 116.066 52.072 116.066 116.076zM0.706 447.744c0 86.559 70.414 156.973 156.953 156.973s156.942-70.414 156.942-156.973c0-86.528-70.404-156.932-156.942-156.932s-156.953 70.404-156.953 156.932zM273.693 447.744c0 64.004-52.062 116.076-116.045 116.076-63.994 0-116.055-52.072-116.055-116.076 0-63.983 52.062-116.035 116.055-116.035s116.045 52.052 116.045 116.035zM750.951 730.018l-460.238-260.229-20.129 35.601 460.238 260.229 20.129-35.601zM750.978 165.463l-20.121-35.605-460.292 260.123 20.121 35.605 460.292-260.123z" />
<glyph unicode="&#xe91e;" glyph-name="clap" data-tags="clap" d="M360.54 952.702c-2.858-5.716-5.716-12.575-5.716-16.004-1.143-8.574-6.287-27.436-12.003-40.010-15.433-36.581-24.006-80.021-19.434-93.739 9.717-26.864 44.583-16.004 50.87 15.433 1.143 6.287 4.573 16.576 7.43 22.291 3.429 5.716 6.287 13.146 6.287 16.004 1.715 12.003 7.43 34.866 10.288 42.868 2.286 4.573 4.001 9.717 4.573 11.432 0 1.715 2.858 8.574 5.144 16.004 9.145 26.293-34.295 49.727-47.441 25.721zM188.496 949.273c-11.432-6.287-14.289-11.432-12.575-27.436 0.572-10.86 3.429-24.578 6.287-30.865s9.145-21.148 14.289-32.58c5.144-12.003 12.575-30.294 17.147-40.010 13.718-31.437 14.861-44.011 4.001-46.298-5.144-1.715-2.286-2.858 5.716-3.429 8.574 0 16.576-4.573 18.862-9.145 6.859-18.29 44.011 8.002 38.296 27.436-10.288 36.009-56.015 143.466-66.303 155.469-10.288 13.146-12.575 13.718-25.721 6.859zM58.176 841.245c-12.575-12.575-7.43-32.008 14.861-52.585 11.432-11.432 24.578-20.577 28.007-20.577 4.001 0 10.288-5.144 14.289-11.432s10.288-11.432 13.718-11.432c3.429 0 12.003-6.287 19.434-14.289 16.004-17.147 34.295-18.29 48.012-3.429 8.002 8.574 8.574 13.146 2.858 25.721-4.001 8.002-9.145 14.861-12.003 14.861s-26.864 18.29-53.157 40.010c-47.441 39.439-62.873 46.298-76.020 33.151zM413.126 772.656c-13.718-2.858-24.578-8.002-24.578-11.432s4.573-4.573 10.86-2.858c10.288 2.286 10.288 1.715 1.143-15.433-5.144-9.717-9.717-18.29-10.288-19.434s-14.289 6.859-31.437 18.29c-24.006 16.576-35.438 20.577-57.158 20.577-15.433 0-27.436-2.286-27.436-5.144s-5.144-7.43-11.432-9.145c-16.004-5.144-40.010-44.583-40.010-64.588 0-12.003-4.001-18.862-14.861-24.578-21.72-11.432-42.297-38.296-42.297-54.3v-14.289l-15.433 10.288c-53.728 36.009-87.451 35.438-121.746-1.715-20.005-21.72-22.863-28.007-22.863-52.585 0-26.293 10.288-50.299 26.293-60.016 5.144-2.858 2.858-8.574-8.574-21.148-17.147-19.434-21.72-47.441-12.003-77.163 5.716-17.719 48.012-54.3 62.873-54.3 4.001 0 0.572-8.002-7.43-18.862-18.862-25.149-24.006-58.872-12.575-82.307 12.003-24.006 48.012-50.87 108.6-80.592 9.717-4.573 21.72-12.575 27.436-17.147 5.144-4.573 9.717-6.859 9.717-4.573s6.859-0.572 16.004-6.859c8.574-5.716 23.435-14.861 32.58-19.434 9.717-4.573 27.436-14.289 40.010-21.72s32.008-18.29 42.868-24.006c10.86-5.716 35.438-19.434 54.3-29.722 128.033-71.447 134.321-74.305 161.756-82.307 28.579-8.574 90.309-10.288 100.026-2.286 4.001 2.858 14.289 6.859 22.863 9.145 17.719 4.001 18.862 4.573 53.157 34.295 18.29 16.004 30.865 21.148 62.302 26.293 44.011 6.859 78.878 25.149 110.314 57.158 25.721 26.864 58.301 66.303 58.301 72.019 0 1.715 7.43 12.575 17.147 23.435 9.145 10.288 17.147 21.72 17.147 25.149s5.716 14.289 13.146 24.006c10.86 16.004 12.575 25.149 12.003 72.59 0 58.872-2.286 64.017-65.16 180.047-12.575 22.291-30.865 56.586-41.154 77.163s-20.577 38.296-22.863 40.010c-2.286 1.715-6.859 9.717-9.717 17.147-10.288 23.435-46.869 87.451-60.587 105.742-33.723 45.155-116.602 25.721-133.749-31.437-3.429-12.575-5.144-25.721-3.429-28.579 6.287-10.288-4.001-5.716-23.435 10.288-20.005 16.004-33.723 26.864-108.028 81.735-38.296 28.579-49.727 33.723-69.732 33.723-13.146 0-26.864 1.143-31.437 2.286-4.001 1.143-18.29 0-31.437-3.429zM504.006 717.213c13.718-9.145 29.722-22.291 35.438-28.579 6.287-6.859 13.718-12.003 17.719-12.003 3.429 0 13.718-7.43 22.863-17.147 9.145-9.145 18.862-17.147 21.72-17.147s13.718-6.859 24.578-15.433c10.288-9.145 29.15-23.435 42.297-33.151 12.575-9.145 30.294-22.291 38.867-28.579 8.574-6.859 18.862-11.432 22.863-10.86 3.429 0.572 10.86 1.143 15.433 1.715 11.432 0.572 10.86 20.577-2.286 48.584-28.579 62.302-28.579 66.303 0 80.592 12.003 6.859 19.434 7.43 28.007 2.858 11.432-6.287 13.718-10.288 45.155-72.59 10.86-21.148 21.148-40.010 23.435-41.725 1.715-1.715 12.003-19.434 22.291-40.010 29.722-58.301 55.443-106.885 80.592-150.325 19.434-33.151 24.006-46.869 26.864-81.164 2.858-37.152 1.715-44.583-12.575-72.019-35.438-71.447-119.46-165.186-146.895-165.186-5.144 0-10.288-2.858-11.432-5.716-3.429-11.432-78.878-6.859-102.312 6.287-7.43 4.001-14.861 7.43-16.576 8.002-4.573 0-33.723 21.72-57.158 41.725-11.432 9.717-24.006 18.29-26.864 18.29s-12.575 8.002-21.72 17.147c-9.145 9.717-18.862 17.147-21.72 17.147s-13.718 6.859-24.006 15.433c-10.288 9.145-49.727 39.439-88.023 67.446-37.724 28.579-80.021 60.016-93.167 69.732-13.718 10.288-30.865 22.863-38.867 28.579-36.581 24.578-45.155 57.158-20.005 73.733 12.003 8.002 17.147 8.574 33.151 2.286 9.717-4.001 26.293-14.861 35.438-24.006 9.717-8.574 20.577-16.004 23.435-16.004 3.429 0 13.146-7.43 22.291-17.147 9.145-9.145 18.862-17.147 21.72-17.147s14.289-6.859 24.578-15.433c56.586-46.298 56.015-46.298 69.732-41.154 20.577 7.43 21.72 21.148 3.429 40.010-8.574 9.145-18.29 16.576-21.148 16.576s-13.146 6.287-23.435 14.861c-30.294 24.578-62.873 49.156-120.603 90.881-101.169 72.59-114.887 89.166-100.026 117.745 9.145 16.576 40.010 14.289 57.158-3.429 7.43-8.002 16.004-14.289 18.862-14.289s13.146-6.859 23.435-14.861c9.717-8.574 62.302-48.012 116.602-88.023 82.307-60.587 101.741-72.59 111.457-69.161 6.859 2.858 13.146 9.717 14.289 16.004 1.715 12.575-4.001 18.29-70.304 67.446-21.148 16.004-46.869 35.438-57.158 44.583-10.288 8.574-20.577 15.433-22.863 15.433s-12.575 6.859-23.435 16.004c-10.288 8.574-28.579 22.863-40.582 31.437s-38.296 29.15-58.872 44.583c-20.577 16.004-41.725 31.437-46.869 34.295-13.146 6.859-13.718 37.724-0.572 52.013 20.577 22.863 60.016 5.716 138.893-62.302 11.432-10.288 24.006-18.862 26.864-18.862s12.575-7.43 21.72-17.147c9.145-9.145 19.434-17.147 23.435-17.147 3.429 0 10.288-4.001 14.289-9.145 4.573-5.144 17.147-15.433 28.007-23.435 10.86-7.43 29.15-20.577 40.582-29.15s32.58-24.006 48.012-34.866l26.864-18.862 11.432 11.432c12.003 12.003 10.288 35.438-3.429 35.438-4.001 0-14.289 8.002-23.435 17.147-9.145 9.717-19.434 17.147-22.863 17.147s-13.718 8.002-22.863 17.147c-9.145 9.717-18.862 17.147-21.72 17.147s-13.718 6.859-24.578 16.004c-10.288 8.574-29.15 23.435-42.297 32.58-64.017 46.869-74.305 61.159-58.872 82.307 11.432 17.147 36.581 14.861 65.731-4.573zM139.912 556.6c68.018-36.581 77.734-42.868 102.312-65.731l24.578-23.435-19.434-22.291c-21.148-24.578-17.147-24.578-73.162 8.574-15.433 9.145-34.866 19.434-42.868 22.863s-18.862 10.86-24.006 15.433c-5.716 5.144-10.288 7.43-10.288 4.573 0-4.573-40.582 24.006-46.869 33.723-1.715 2.858-1.143 11.432 1.715 18.862 2.858 6.859 3.429 13.146 1.715 13.146-2.286 0-0.572 3.429 3.429 8.002 7.43 9.145 33.723 14.289 42.868 8.574 3.429-2.286 21.148-12.003 40.010-22.291zM119.907 434.282c4.573-4.001 16.576-11.432 25.721-16.004 23.435-11.432 61.73-33.151 69.161-39.439 3.429-2.858 7.43-3.429 9.717-1.715 1.715 1.715 7.43-5.144 13.146-16.004 5.144-10.288 14.861-23.435 21.72-29.15 17.719-15.433 203.481-154.326 216.056-161.756 6.287-3.429 18.29-13.146 26.864-21.72 8.574-8.002 17.719-14.861 20.005-14.861 2.858 0 13.146-6.859 23.435-15.433 48.012-40.010 104.599-79.449 136.035-94.882l16.576-8.002-32.58-16.004c-42.297-21.72-89.738-22.291-131.463-1.715-34.295 17.147-71.447 37.724-81.164 45.726-4.001 3.429-7.43 4.001-7.43 2.286 0-2.286-8.002 1.715-18.29 9.145-10.288 6.859-21.72 13.146-26.293 13.718-4.001 0.572-10.86 4.573-15.433 8.002s-16.576 10.86-26.864 16.576c-10.288 5.716-29.15 16.004-41.725 23.435s-30.294 17.147-40.010 21.72c-9.145 4.573-21.72 12.575-26.864 17.147-5.716 4.573-10.288 6.859-10.288 4.001 0-2.286-3.429-1.715-6.859 1.715-4.001 2.858-28.007 16.576-53.157 29.722-84.593 45.155-102.312 66.303-76.591 92.024 14.289 14.289 42.297 12.575 67.446-4.573 8.002-5.144 30.294-17.719 49.156-28.007 18.862-9.717 44.583-23.435 57.158-30.865 31.437-18.29 64.017-34.295 70.304-34.295 5.144 0 20.005 28.579 17.147 32.008-5.144 4.573-45.726 30.865-48.012 30.865-1.715 0-21.72 10.86-44.011 24.006-22.863 13.146-41.725 23.435-42.868 22.291-1.143-0.572-10.86 5.144-21.72 13.718-10.86 8.002-19.434 13.146-19.434 11.432 0-2.286-7.43 1.715-16.576 8.002-9.145 6.859-18.29 12.003-20.577 12.003-8.002 0-83.45 46.869-94.31 58.301-11.432 12.575-10.86 27.436 2.286 42.868 7.43 9.145 46.869 5.144 60.587-6.287z" />
<glyph unicode="&#xe91f;" glyph-name="time" data-tags="time" d="M838.364 667.526c69.705-77.702 112.494-180.054 112.494-292.669 0-242.372-196.486-438.858-438.858-438.858s-438.858 196.486-438.858 438.858c0 217.405 158.232 397.386 365.715 432.275v104.106h-48.762c-13.482 0-24.381 10.922-24.381 24.381s10.898 24.381 24.381 24.381h243.809c13.482 0 24.381-10.922 24.381-24.381s-10.898-24.381-24.381-24.381h-48.762v-103.985c83.553-14.166 159.062-51.785 219.551-106.057l56.783 56.783c9.289 9.289 24.357 9.289 33.67 0 9.289-9.289 9.289-24.381 0-33.67l-56.783-56.783zM536.381 911.238h-48.762v-98.767c8.119 0.463 16.141 1.243 24.381 1.243s16.262-0.707 24.381-1.146v98.67zM512 764.952c-215.43 0-390.095-174.641-390.095-390.095s174.665-390.095 390.095-390.095c215.455 0 390.095 174.641 390.095 390.095 0 215.43-174.641 390.095-390.095 390.095zM512 277.334c-53.857 0-97.524 43.666-97.524 97.524 0 18.262 5.339 35.158 14.093 49.761l-129.048 129.024c-9.289 9.289-9.289 24.381 0 33.67 9.313 9.289 24.381 9.289 33.67 0l129.048-129.024c14.629 8.753 31.501 14.093 49.761 14.093 53.857 0 97.524-43.666 97.524-97.524s-43.666-97.524-97.524-97.524zM512 423.619c-26.917 0-48.762-21.846-48.762-48.762s21.846-48.762 48.762-48.762 48.762 21.846 48.762 48.762-21.846 48.762-48.762 48.762z" />
<glyph unicode="&#xe920;" glyph-name="location" data-tags="place, location" d="M512-64c0 0-400.696 209.631-400.696 623.304 0 221.296 179.4 400.696 400.696 400.696s400.696-179.4 400.696-400.696c0-413.673-400.696-623.304-400.696-623.304zM512 915.478c-196.386 0-356.174-159.789-356.174-356.174 0-328.526 277.415-523.153 356.24-571.815 78.892 48.462 356.107 242.242 356.107 571.815 0 196.386-159.789 356.174-356.174 356.174zM512 358.957c-110.659 0-200.348 89.689-200.348 200.348s89.689 200.348 200.348 200.348 200.348-89.689 200.348-200.348-89.689-200.348-200.348-200.348zM512 715.13c-86.061 0-155.826-69.766-155.826-155.826s69.766-155.826 155.826-155.826 155.826 69.766 155.826 155.826-69.766 155.826-155.826 155.826z" />
<glyph unicode="&#xe921;" glyph-name="music" data-tags="music" d="M832 64h-128c-58.923 0-106.667 47.744-106.667 106.667v42.667c0 58.923 47.744 106.667 106.667 106.667h192c0 182.123 0 533.952 0 533.333 0 23.552-19.115 42.667-42.667 42.667-2.283 0-4.501-0.32-6.677-0.683l-391.36-107.861-0.619-0.896c-16.32-5.973-28.011-21.504-28.011-39.893v-682.667c0-58.923-47.744-106.667-106.667-106.667h-128c-58.923 0-106.667 47.744-106.667 106.667v42.667c0 58.923 47.744 106.667 106.667 106.667h192v533.333c0 37.312 24.107 68.693 57.451 80.277l-0.128 0.384 390.784 108.416c6.784 1.771 13.845 2.923 21.227 2.923 47.125 0 85.333-38.208 85.333-85.333v0-682.667c0-58.923-47.744-106.667-106.667-106.667zM384 106.667v0 64h-192c-35.328 0-64-28.651-64-64v-42.667c0-35.349 28.672-64 64-64h128c35.328 0 64 28.651 64 64v42.667zM896 213.333c0 0 0 0 0 0v64h-192c-35.349 0-64-28.651-64-64v-42.667c0-35.349 28.651-64 64-64h128c35.349 0 64 28.651 64 64v42.667z" />
<glyph unicode="&#xe922;" glyph-name="blogger" data-tags="blogger" d="M1024 448c0-282.77-229.23-512-512-512s-512 229.23-512 512c0 282.77 229.23 512 512 512s512-229.23 512-512zM962.56 448c0 248.837-201.723 450.56-450.56 450.56s-450.56-201.723-450.56-450.56c0-248.837 201.723-450.56 450.56-450.56s450.56 201.723 450.56 450.56zM286.72 368.156c0-80.368 65.637-145.436 146.513-145.436h157.706c80.936 0 146.341 65.068 146.341 145.436v103.128c0 16.061-12.954 29.097-29.13 29.097h-24.731c-16 0-28.599 11.986-29.656 27.059-0.172 80.721-65.756 145.84-146.687 145.84h-73.843c-80.876 0-146.456-65.12-146.513-145.493v-159.631zM552.96 519.678c0-16.92-13.023-30.718-28.998-30.718h-85.364c-15.974 0-28.998 13.795-28.998 30.718-0.002 16.989 13.022 30.722 28.998 30.722h85.364c15.975 0 28.998-13.733 28.998-30.722zM634.88 376.459c0-16.946-12.312-30.859-27.394-30.859h-170.671c-15.081 0-27.215 13.913-27.215 30.859s12.136 30.581 27.215 30.581h170.671c15.082 0 27.394-13.634 27.394-30.581z" />
<glyph unicode="&#xe923;" glyph-name="click" data-tags="click" d="M551.703 701.222c22.083 27.29 35.31 62.041 35.31 99.881 0 87.756-71.14 158.897-158.897 158.897s-158.897-71.14-158.897-158.897c0-37.841 13.227-72.591 35.31-99.881v100.189c0 68.15 55.331 123.278 123.586 123.278 68.116 0 123.586-55.193 123.586-123.278v-100.189zM639.935-28.69c146.285 0 264.872 126.595 264.872 264.828 0 0 0-81.682 0 0v211.802c0 29.284-23.51 53.025-52.966 53.025-29.252 0-52.966-23.7-52.966-53.025v-17.596h-35.31v88.049c0 29.377-23.51 53.193-52.966 53.193-29.252 0-52.966-23.712-52.966-53.193v-52.738h-35.31v88.049c0 29.377-23.51 53.193-52.966 53.193-29.252 0-52.966-23.712-52.966-53.193v-123.359h-35.31v370.573c0 29.354-23.51 53.151-52.966 53.151-29.252 0-52.966-23.556-52.966-53.151v-398.822c-72.683 77.697-168.373 163.165-207.588 123.737-38.388-38.595 60.534-144.949 198.668-377.375 62.239-104.723 140.991-177.132 273.704-177.149v0zM940.117 236.138c0-165.761-134.377-300.138-300.138-300.138-109.918 0-225.922 51.288-305.759 196.742-115.235 209.945-262.602 347.63-192.431 417.802 50.199 50.199 129.014 2.040 198.051-62.529v0 312.792c0 49.187 39.522 88.573 88.276 88.573 49.094 0 88.276-39.656 88.276-88.573v-176.198c14.754 11.054 33.092 17.598 52.966 17.598 38.225 0 70.44-23.922 82.831-57.49 15.564 13.775 36.013 22.179 58.41 22.179 49.094 0 88.276-39.485 88.276-88.192v-0.476c14.754 11.037 33.092 17.546 52.966 17.546 49.094 0 88.276-39.524 88.276-88.28v-211.357z" />
<glyph unicode="&#xe924;" glyph-name="image" data-tags="image" d="M934.956 69.565h-845.914c-49.174 0-89.043 39.869-89.043 89.043v578.783c0 49.174 39.869 89.043 89.043 89.043h845.914c49.174 0 89.043-39.869 89.043-89.043v-578.783c0-49.174-39.869-89.043-89.043-89.043zM979.478 737.391c0 24.576-19.946 44.522-44.522 44.522h-845.914c-24.576 0-44.522-19.946-44.522-44.522v-578.783c0-24.576 19.946-44.522 44.522-44.522h845.914c24.576 0 44.522 19.946 44.522 44.522v578.783zM897.87 209.474l-141 141-80.562-80.562 74.217-74.217c8.481-8.481 8.481-22.239 0-30.742-8.503-8.481-22.261-8.481-30.742 0l-319.087 319.087-274.565-274.565c-8.481-8.481-22.239-8.481-30.742 0-8.481 8.503-8.481 22.261 0 30.742l287.277 287.277c0.713 1.069 1.18 2.249 2.115 3.206 4.386 4.386 10.173 6.389 15.916 6.256 5.743 0.134 11.531-1.87 15.916-6.256 0.935-0.957 1.381-2.137 2.115-3.206l226.839-226.839 93.273 93.273c0.735 1.047 1.18 2.249 2.115 3.206 4.386 4.363 10.173 6.389 15.916 6.256 5.743 0.134 11.531-1.892 15.916-6.256 0.935-0.957 1.381-2.159 2.115-3.206l153.712-153.712c8.481-8.481 8.481-22.239 0-30.742-8.503-8.481-22.261-8.481-30.742 0zM623.305 559.305c-49.174 0-89.043 39.869-89.043 89.043s39.869 89.043 89.043 89.043 89.043-39.869 89.043-89.043-39.869-89.043-89.043-89.043zM623.305 692.87c-24.576 0-44.522-19.946-44.522-44.522s19.946-44.522 44.522-44.522 44.522 19.946 44.522 44.522-19.946 44.522-44.522 44.522z" />
<glyph unicode="&#xe925;" glyph-name="delicious" data-tags="delicious" d="M0 448c0 282.77 229.23 512 512 512s512-229.23 512-512c0-282.77-229.23-512-512-512s-512 229.23-512 512zM61.44 448c0-248.837 201.723-450.56 450.56-450.56s450.56 201.723 450.56 450.56c0 248.837-201.723 450.56-450.56 450.56s-450.56-201.723-450.56-450.56zM365.236 673.28c-43.183 0-78.516-35.335-78.516-78.518v-314.007c0-43.208 35.333-78.515 78.516-78.515h314.037c43.182 0 78.487 35.306 78.487 78.515v314.007c0 43.183-35.305 78.518-78.487 78.518h-314.037zM522.24 225.793v211.967h-211.968v157.002c0 30.312 24.656 54.966 54.964 54.966h157.004v-211.968h211.968l0.001-157.005c0-30.305-24.644-54.962-54.936-54.962h-157.033z" />
<glyph unicode="&#xe926;" glyph-name="swipe-left" data-tags="swipe-left" d="M371.641 783.449h-248.938l114.759-114.759-26.483-26.483-158.897 158.897 158.897 158.897 26.483-26.483-114.759-114.759h250.737c8.241 40.478 43.827 70.621 86.477 70.621 49.094 0 88.276-39.656 88.276-88.573v-176.198c14.754 11.054 33.092 17.598 52.966 17.598 38.225 0 70.44-23.922 82.831-57.49 15.564 13.775 36.013 22.179 58.41 22.179 49.094 0 88.276-39.485 88.276-88.192v-0.476c14.754 11.037 33.092 17.546 52.966 17.546 49.094 0 88.276-39.524 88.276-88.28v-211.357c0-165.761-134.377-300.138-300.138-300.138-109.918 0-225.922 51.288-305.759 196.742-115.235 209.945-262.602 347.63-192.431 417.802 50.199 50.199 129.014 2.040 198.051-62.529v0 295.434zM671.735-28.689c146.285 0 264.872 126.595 264.872 264.828 0 0 0-81.682 0 0v211.802c0 29.284-23.51 53.025-52.966 53.025-29.252 0-52.966-23.7-52.966-53.025v-17.596h-35.31v88.049c0 29.377-23.51 53.193-52.966 53.193-29.252 0-52.966-23.712-52.966-53.193v-52.738h-35.31v88.049c0 29.377-23.51 53.193-52.966 53.193-29.252 0-52.966-23.712-52.966-53.193v-123.359h-35.31v370.573c0 29.354-23.51 53.151-52.966 53.151-29.252 0-52.966-23.556-52.966-53.151v-398.822c-72.683 77.697-168.373 163.165-207.588 123.737-38.388-38.595 60.534-144.949 198.668-377.375 62.239-104.723 140.991-177.132 273.704-177.149v0z" />
<glyph unicode="&#xe927;" glyph-name="right" data-tags="chevron-right" d="M782.63 499.201l-438.858 438.858c-29.258 29.258-73.144 29.258-102.4 0s-29.258-73.144 0-102.4l387.657-387.657-387.657-387.657c-29.258-29.258-29.258-73.144 0-102.4 14.628-14.628 29.258-21.943 51.201-21.943s36.571 7.315 51.201 21.943l438.858 438.858c29.258 29.258 29.258 73.144 0 102.4z" />
<glyph unicode="&#xe928;" glyph-name="up2" data-tags="chevrons-up" d="M197.485 469.943l314.515 314.515 314.515-314.515c14.628-14.628 36.571-21.943 51.201-21.943s36.571 7.315 51.201 21.943c29.258 29.258 29.258 73.144 0 102.4l-365.714 365.714c-29.258 29.258-73.144 29.258-102.4 0l-365.714-365.714c-29.258-29.258-29.258-73.144 0-102.4s73.144-29.258 102.4 0zM563.201 426.057c-29.258 29.258-73.144 29.258-102.4 0l-365.714-365.714c-29.258-29.258-29.258-73.144 0-102.4s73.144-29.258 102.4 0l314.515 314.515 314.515-314.515c14.628-14.628 36.571-21.943 51.201-21.943s36.571 7.315 51.201 21.943c29.258 29.258 29.258 73.144 0 102.4l-365.714 365.714z" />
<glyph unicode="&#xe929;" glyph-name="down2" data-tags="chevrons-down" d="M826.515 426.057l-314.515-314.515-314.515 314.515c-29.258 29.258-73.144 29.258-102.4 0s-29.258-73.144 0-102.4l365.714-365.714c14.628-14.628 36.571-21.943 51.201-21.943s36.571 7.315 51.201 21.943l365.714 365.714c29.258 29.258 29.258 73.144 0 102.4s-73.144 29.258-102.4 0zM460.799 469.943c14.628-14.628 36.571-21.943 51.201-21.943s36.571 7.315 51.201 21.943l365.714 365.714c29.258 29.258 29.258 73.144 0 102.4s-73.144 29.258-102.4 0l-314.515-314.515-314.515 314.515c-29.258 29.258-73.144 29.258-102.4 0s-29.258-73.144 0-102.4l365.714-365.714z" />
<glyph unicode="&#xe92a;" glyph-name="down" data-tags="chevron-down" d="M1002.057 718.629c-29.258 29.258-73.143 29.258-102.399 0l-387.656-387.656-387.656 387.656c-29.258 29.258-73.143 29.258-102.399 0s-29.258-73.143 0-102.399l438.857-438.857c14.628-14.628 36.571-21.943 51.201-21.943s36.571 7.315 51.201 21.943l438.857 438.857c29.258 29.258 29.258 73.143 0 102.399z" />
<glyph unicode="&#xe92b;" glyph-name="up" data-tags="chevron-up" d="M1002.058 279.772l-438.857 438.857c-29.258 29.258-73.143 29.258-102.399 0l-438.857-438.857c-29.258-29.258-29.258-73.143 0-102.399s73.143-29.258 102.399 0l387.656 387.656 387.656-387.656c14.628-14.628 36.571-21.943 51.201-21.943s36.571 7.315 51.201 21.943c29.258 29.258 29.258 73.143 0 102.399z" />
<glyph unicode="&#xe92c;" glyph-name="play" data-tags="play" d="M896.962 489.062l-718.596 461.955c-15.398 10.265-35.93 10.265-51.329 0-15.398-5.133-25.664-20.532-25.664-41.062v-923.91c0-20.532 10.265-35.93 25.664-46.195 10.265-5.133 15.398-5.133 25.664-5.133s20.532 5.133 25.664 10.265l718.596 461.955c15.398 10.265 25.664 25.664 25.664 41.062s-10.265 35.93-25.664 41.062zM204.030 78.436v739.128l574.878-369.564-574.878-369.564z" />
<glyph unicode="&#xe92d;" glyph-name="stop2" data-tags="stop" d="M-32 992h1088v-1088h-1088z" />
<glyph unicode="&#xe92e;" glyph-name="copyright" data-tags="copyright" d="M512 37.492c225.66 0 410.508 184.848 410.508 410.508s-184.848 410.508-410.508 410.508-410.508-184.848-410.508-410.508 184.848-410.508 410.508-410.508zM512 959.332c283.272 0 511.332-228.060 511.332-511.332s-228.060-511.332-511.332-511.332-511.332 228.060-511.332 511.332 228.060 511.332 511.332 511.332zM504.8 594.44c-73.846 0-96.024-65.365-96.024-139.236v-14.404c0-73.866 22.216-139.236 96.024-139.236 45.082 0 84.020 27.517 84.020 72.020h91.224c0-46.862-25.374-82.108-52.812-105.628-30.95-26.53-66.99-43.212-122.432-43.212-131.037 0-196.852 86.599-196.852 216.056v14.404c0 62.072 17.428 118.689 48.012 153.64 31.686 36.213 82.444 64.816 148.84 64.816 53.142 0 97.532-18.312 124.832-45.612 26.413-26.413 50.412-67.186 50.412-117.632h-91.224c0 12.004-2.4 21.604-7.2 31.208s-9.604 21.604-16.804 28.808c-13.007 13.007-35.232 24.008-60.016 24.008z" />
<glyph unicode="&#xe92f;" glyph-name="done" data-tags="done" d="M324.949 218.625l617.131 619.861 81.92-81.92-699.051-699.051-324.949 324.949 79.189 81.92z" />
<glyph unicode="&#xe930;" glyph-name="logout" data-tags="log-out" d="M358.4 38.4h-204.8c-30.72 0-51.2 20.48-51.2 51.2v716.8c0 30.72 20.48 51.2 51.2 51.2h204.8c30.72 0 51.2 20.48 51.2 51.2s-20.48 51.2-51.2 51.2h-204.8c-87.040 0-153.6-66.56-153.6-153.6v-716.8c0-87.040 66.56-153.6 153.6-153.6h204.8c30.72 0 51.2 20.48 51.2 51.2s-20.48 51.2-51.2 51.2zM1018.88 427.52c5.12 10.24 5.12 25.6 0 40.96-5.12 5.12-5.12 10.24-10.24 15.36l-256 256c-20.48 20.48-51.2 20.48-71.68 0s-20.48-51.2 0-71.68l168.96-168.96h-491.52c-30.72 0-51.2-20.48-51.2-51.2s20.48-51.2 51.2-51.2h491.52l-168.96-168.96c-20.48-20.48-20.48-51.2 0-71.68 10.24-10.24 25.6-15.36 35.84-15.36s25.6 5.12 35.84 15.36l256 256c5.12 5.12 10.24 10.24 10.24 15.36z" />
<glyph unicode="&#xe931;" glyph-name="login" data-tags="log-in" d="M870.398 959.999h-204.8c-30.72 0-51.2-20.48-51.2-51.2s20.48-51.2 51.2-51.2h204.8c30.72 0 51.2-20.48 51.2-51.2v-716.798c0-30.72-20.48-51.2-51.2-51.2h-204.8c-30.72 0-51.2-20.48-51.2-51.2s20.48-51.2 51.2-51.2h204.8c87.039 0 153.6 66.56 153.6 153.6v716.798c0 87.039-66.56 153.6-153.6 153.6zM711.678 427.52c5.12 10.24 5.12 25.6 0 40.96-5.12 5.12-5.12 10.24-10.24 15.36l-255.999 255.999c-20.48 20.48-51.2 20.48-71.679 0s-20.48-51.2 0-71.679l168.96-168.96h-491.519c-30.72 0-51.2-20.48-51.2-51.2s20.48-51.2 51.2-51.2h491.519l-168.96-168.96c-20.48-20.48-20.48-51.2 0-71.679 10.24-10.24 20.48-15.36 35.84-15.36s25.6 5.12 35.84 15.36l255.999 255.999c5.12 5.12 10.24 10.24 10.24 15.36z" />
<glyph unicode="&#xe932;" glyph-name="facebook" data-tags="facebook" d="M512-64c-282.77 0-512 229.23-512 512s229.23 512 512 512c282.77 0 512-229.23 512-512s-229.23-512-512-512zM512-2.56c248.837 0 450.56 201.723 450.56 450.56s-201.723 450.56-450.56 450.56c-248.837 0-450.56-201.723-450.56-450.56s201.723-450.56 450.56-450.56zM549.161 222.72v225.306h66.647l8.832 77.642h-75.479l0.113 38.86c0 20.25 2.062 31.101 33.229 31.101h41.665v77.651h-66.656c-80.065 0-108.245-37.665-108.245-101.005v-46.616h-49.907v-77.642h49.907v-225.298h99.894z" />
<glyph unicode="&#xe933;" glyph-name="whatsapp" data-tags="whatsapp" horiz-adv-x="878" d="M562.857 403.429c9.714 0 102.857-48.571 106.857-55.429 1.143-2.857 1.143-6.286 1.143-8.571 0-14.286-4.571-30.286-9.714-43.429-13.143-32-66.286-52.571-98.857-52.571-27.429 0-84 24-108.571 35.429-81.714 37.143-132.571 100.571-181.714 173.143-21.714 32-41.143 71.429-40.571 110.857v4.571c1.143 37.714 14.857 64.571 42.286 90.286 8.571 8 17.714 12.571 29.714 12.571 6.857 0 13.714-1.714 21.143-1.714 15.429 0 18.286-4.571 24-19.429 4-9.714 33.143-87.429 33.143-93.143 0-21.714-39.429-46.286-39.429-59.429 0-2.857 1.143-5.714 2.857-8.571 12.571-26.857 36.571-57.714 58.286-78.286 26.286-25.143 54.286-41.714 86.286-57.714 4-2.286 8-4 12.571-4 17.143 0 45.714 55.429 60.571 55.429zM446.857 100.571c197.714 0 358.857 161.143 358.857 358.857s-161.143 358.857-358.857 358.857-358.857-161.143-358.857-358.857c0-75.429 24-149.143 68.571-210.286l-45.143-133.143 138.286 44c58.286-38.286 127.429-59.429 197.143-59.429zM446.857 890.286c237.714 0 430.857-193.143 430.857-430.857s-193.143-430.857-430.857-430.857c-72.571 0-144.571 18.286-208.571 53.714l-238.286-76.571 77.714 231.429c-40.571 66.857-61.714 144-61.714 222.286 0 237.714 193.143 430.857 430.857 430.857z" />
<glyph unicode="&#xe934;" glyph-name="pause2" data-tags="pause, media control" d="M352 960h-192c-17.696 0-32-14.336-32-32v-960c0-17.696 14.304-32 32-32h192c17.696 0 32 14.304 32 32v960c0 17.664-14.304 32-32 32zM864 960h-192c-17.696 0-32-14.336-32-32v-960c0-17.696 14.304-32 32-32h192c17.696 0 32 14.304 32 32v960c0 17.664-14.304 32-32 32z" />
<glyph unicode="&#xe935;" glyph-name="pause" data-tags="pause" d="M398.223 959.999h-227.556c-34.133 0-56.889-22.756-56.889-56.889v-910.222c0-34.133 22.756-56.889 56.889-56.889h227.556c34.133 0 56.889 22.756 56.889 56.889v910.222c0 34.133-22.756 56.889-56.889 56.889zM341.334 49.778h-113.777v796.443h113.777v-796.443zM853.333 959.999h-227.556c-34.133 0-56.889-22.756-56.889-56.889v-910.222c0-34.133 22.756-56.889 56.889-56.889h227.556c34.133 0 56.889 22.756 56.889 56.889v910.222c0 34.133-22.756 56.889-56.889 56.889zM796.444 49.778h-113.777v796.443h113.777v-796.443z" />
<glyph unicode="&#xe936;" glyph-name="uninga" data-tags="uninga" d="M486.4 582.8l0.6-365.8 5-11c2.6-6 8.6-15.6 13.2-21.2l8.4-10.4-36.2-42.8c-20-23.4-38.8-45.6-41.8-49.4-6.4-7.6-7.4-7.4-28.6 3.4-17.6 9.2-32.8 24.2-41 40.6-3.6 7-6.8 13.2-7.2 13.6s-3.2-2.4-6.2-6c-36.4-44.6-64-59.6-106.2-57.4-22.4 1.2-37.2 6-51.2 16.8-16.4 12.4-34.8 42.4-43.6 71.2l-4.6 14.6-0.6 304.6c-0.2 177-1.2 304.4-2.2 304s-7.4-7.4-14.4-15.6c-60.8-72.8-96.8-151-113.2-246.2-5.2-30-5.2-125.6 0-155.8 18.6-108.6 66.4-201.6 142.2-277 57-56.6 120.2-95.6 196.8-121 48.4-16.2 94.2-24 141-24h25.4v372.6c0 418.8 1.4 382.2-16 407l-9.8 14.2 41 48.6c27.2 32 42.4 48.4 44.6 48 1.8-0.4 10-3.8 18.2-7.8 19.2-9.2 37.2-26.8 44-43 2.8-6.4 6.2-11.6 7.6-11.6 1.2 0 2.4 0.8 2.4 1.8 0 3.4 36.2 39.8 45.6 46 35.6 22.8 90.2 20.6 118.4-5 17-15.4 32.6-43.4 40.4-72.8l4.6-17v-317.6c0-221 0.6-317.4 2.2-317 3.4 1 32.4 33.6 47.2 53.2 95 126.2 124.6 293.6 78.8 444.8-41 134.8-133.8 243.8-260.2 305.6-69 33.8-125.8 47.8-201.6 49.4l-43.4 1 0.4-365.6zM326 913.2c-11.6-4.6-25.8-10.8-31.4-13.4l-10.6-4.8v-330.2c0-360.2-0.6-339.2 11.2-348.6 15.6-12.4 41.6-3.8 51 16.8 3.6 7.6 3.8 22.4 3.8 348.6 0 187.2-0.6 340.4-1.4 340.4-1 0-11-4-22.6-8.8zM685.2 703.2c-8.6-3.2-18.2-11.6-22.4-19.6-2.4-4.6-2.8-58.6-2.8-359.6 0-227.6 0.6-354 2-354 2.6 0 29.2 9.8 48.6 18l15.4 6.4-0.4 344.2c-0.6 340.4-0.6 344.4-4.6 351.2-8 13.4-21.6 18.6-35.8 13.4z" />
<glyph unicode="&#xe937;" glyph-name="stop" data-tags="media-stop-outline" d="M853.334 789.334v-682.667h-682.667v682.667h682.667zM853.334 960.001h-682.667c-93.866 0-170.666-76.8-170.666-170.666v-682.667c0-93.866 76.8-170.666 170.666-170.666h682.667c93.866 0 170.666 76.8 170.666 170.666v682.667c0 93.866-76.8 170.666-170.666 170.666z" />
<glyph unicode="&#xe938;" glyph-name="play2" data-tags="play" horiz-adv-x="768" d="M0 960l768-512-768-512z" />
<glyph unicode="&#xe939;" glyph-name="left-quote" data-tags="left-quote" d="M980.67 63.544c5.696 3.255 14.646 13.832 19.121 24.003 8.543 17.494 8.951 20.749 7.73 220.503l-1.22 203.009-9.357 13.425c-18.714 26.037-23.19 26.851-148.494 29.292l-113.506 2.034 13.832 20.341c16.68 25.224 33.767 36.615 63.466 43.124 30.512 6.51 48.006 17.087 53.295 32.953 2.441 7.323 4.475 43.531 4.475 86.249 0 78.925-1.627 84.621-23.19 95.606-24.003 12.205-81.773 2.034-134.661-24.003-86.655-43.124-146.459-120.422-165.58-213.994-5.696-27.665-6.102-64.28-5.289-264.034 1.22-257.931 0.406-249.388 28.885-266.475 12.612-7.73 21.562-8.137 206.264-8.137 160.292 0.406 195.28 1.22 204.229 6.102zM594.18 107.075c-3.661 3.661-4.882 61.025-4.882 233.115 0 252.643 0 251.015 26.851 305.937 17.494 36.208 67.127 90.317 101.708 111.065 43.938 26.445 99.674 40.276 104.963 26.037 1.22-3.661 2.441-29.698 2.441-58.584v-52.074l-15.459-2.847c-43.938-7.73-93.571-45.972-110.251-84.214-5.289-11.798-11.392-25.631-13.832-30.512-2.847-6.916-1.22-43.124 2.441-46.786 0.406-0.406 61.025-1.627 135.068-2.847l133.847-2.441 5.289-10.171c4.068-8.137 5.289-49.633 4.475-191.618-1.22-172.090-1.627-182.261-8.951-190.398-7.73-8.543-10.171-8.543-183.482-8.543-131 0-176.565 1.22-180.227 4.882zM463.994 63.544c5.696 3.255 14.646 13.832 19.121 24.003 8.543 17.494 8.951 20.749 7.73 220.503l-1.22 203.009-9.357 13.425c-18.714 26.037-23.19 26.851-148.494 29.292l-113.506 2.034 13.832 20.341c16.68 25.224 33.767 36.615 63.466 43.124 30.512 6.51 48.006 17.087 53.295 32.953 2.441 7.323 4.475 43.531 4.475 86.249 0 78.925-1.627 84.621-23.19 95.606-24.003 12.205-81.773 2.034-134.661-24.003-86.655-43.124-146.459-120.422-165.58-213.994-5.696-27.665-6.102-64.28-5.289-264.034 1.22-257.931 0.406-249.388 28.885-266.475 12.612-7.73 21.562-8.137 206.264-8.137 160.292 0.406 195.28 1.22 204.229 6.102zM77.503 107.075c-3.661 3.661-4.882 61.025-4.882 233.115 0 252.643 0 251.015 26.851 305.937 17.494 36.208 67.127 90.317 101.708 111.065 43.938 26.445 99.674 40.276 104.963 26.037 1.22-3.661 2.441-29.698 2.441-58.584v-52.074l-15.459-2.847c-43.938-7.73-93.571-45.972-110.251-84.214-17.9-40.683-18.308-41.496-17.087-58.177 1.22-20.749-0.814-20.341 141.578-22.376l133.034-2.034 5.289-10.171c4.068-8.137 5.289-49.633 4.475-191.618-1.22-172.090-1.627-182.261-8.951-190.398-7.73-8.543-10.171-8.543-183.482-8.543-131 0-176.565 1.22-180.227 4.882z" />
<glyph unicode="&#xe93a;" glyph-name="right-quote" data-tags="right-quote" d="M51.2 826c-5.6-3.2-14.4-13.6-18.8-23.6-8.4-17.2-8.8-20.4-7.6-216.8l1.2-199.6 9.2-13.2c18.4-25.6 22.8-26.4 146-28.8l111.6-2-13.6-20c-16.4-24.8-33.2-36-62.4-42.4-30-6.4-47.2-16.8-52.4-32.4-2.4-7.2-4.4-42.8-4.4-84.8 0-77.6 1.6-83.2 22.8-94 23.6-12 80.4-2 132.4 23.6 85.2 42.4 144 118.4 162.8 210.4 5.6 27.2 6 63.2 5.2 259.6-1.2 253.6-0.4 245.2-28.4 262-12.4 7.6-21.2 8-202.8 8-157.6-0.4-192-1.2-200.8-6zM431.2 783.2c3.6-3.6 4.8-60 4.8-229.2 0-248.4 0-246.8-26.4-300.8-17.2-35.6-66-88.8-100-109.2-43.2-26-98-39.6-103.2-25.6-1.2 3.6-2.4 29.2-2.4 57.6v51.2l15.2 2.8c43.2 7.6 92 45.2 108.4 82.8 5.2 11.6 11.2 25.2 13.6 30 2.8 6.8 1.2 42.4-2.4 46-0.4 0.4-60 1.6-132.8 2.8l-131.6 2.4-5.2 10c-4 8-5.2 48.8-4.4 188.4 1.2 169.2 1.6 179.2 8.8 187.2 7.6 8.4 10 8.4 180.4 8.4 128.8 0 173.6-1.2 177.2-4.8zM559.2 826c-5.6-3.2-14.4-13.6-18.8-23.6-8.4-17.2-8.8-20.4-7.6-216.8l1.2-199.6 9.2-13.2c18.4-25.6 22.8-26.4 146-28.8l111.6-2-13.6-20c-16.4-24.8-33.2-36-62.4-42.4-30-6.4-47.2-16.8-52.4-32.4-2.4-7.2-4.4-42.8-4.4-84.8 0-77.6 1.6-83.2 22.8-94 23.6-12 80.4-2 132.4 23.6 85.2 42.4 144 118.4 162.8 210.4 5.6 27.2 6 63.2 5.2 259.6-1.2 253.6-0.4 245.2-28.4 262-12.4 7.6-21.2 8-202.8 8-157.6-0.4-192-1.2-200.8-6zM939.2 783.2c3.6-3.6 4.8-60 4.8-229.2 0-248.4 0-246.8-26.4-300.8-17.2-35.6-66-88.8-100-109.2-43.2-26-98-39.6-103.2-25.6-1.2 3.6-2.4 29.2-2.4 57.6v51.2l15.2 2.8c43.2 7.6 92 45.2 108.4 82.8 17.6 40 18 40.8 16.8 57.2-1.2 20.4 0.8 20-139.2 22l-130.8 2-5.2 10c-4 8-5.2 48.8-4.4 188.4 1.2 169.2 1.6 179.2 8.8 187.2 7.6 8.4 10 8.4 180.4 8.4 128.8 0 173.6-1.2 177.2-4.8z" />
<glyph unicode="&#xe93b;" glyph-name="flickr" data-tags="flickr" d="M0 448c0 282.77 229.23 512 512 512s512-229.23 512-512c0-282.77-229.23-512-512-512s-512 229.23-512 512zM61.44 448c0-248.837 201.723-450.56 450.56-450.56s450.56 201.723 450.56 450.56c0 248.837-201.723 450.56-450.56 450.56s-450.56-201.723-450.56-450.56zM225.28 460.423c0-72.319 58.705-130.938 131.126-130.939 72.423 0 131.127 58.62 131.127 130.939s-58.704 130.938-131.127 130.937c-72.422 0-131.126-58.619-131.126-130.937zM684.086 329.485c72.424 0 131.127 58.62 131.127 130.939 0 72.317-58.705 130.937-131.127 130.937s-131.126-58.62-131.126-130.937c0-72.319 58.705-130.939 131.126-130.939zM683.927 551.071c50.064 0 90.649-40.585 90.649-90.649s-40.585-90.649-90.649-90.649c-50.064 0-90.649 40.585-90.649 90.649s40.585 90.649 90.649 90.649z" />
<glyph unicode="&#xe93c;" glyph-name="attachment" data-tags="attachment" d="M286.822-53.76c-66.202 0-128.205 28.416-172.954 73.728-86.784 87.859-110.95 241.203 10.701 364.339 71.219 72.090 356.659 361.114 499.098 505.344 50.586 51.2 114.944 71.014 176.538 54.272 60.57-16.384 110.131-66.611 126.362-127.898 16.486-62.464-3.021-127.642-53.555-178.842l-477.338-483.328c-27.238-27.597-58.061-43.93-88.986-47.206-30.669-3.277-59.904 6.656-80.384 27.392-37.069 37.683-42.394 108.39 19.354 170.854l335.258 339.456c13.773 13.926 36.096 13.926 49.869 0s13.773-36.557 0-50.483l-335.309-339.507c-28.979-29.286-31.642-57.293-19.302-69.837 5.427-5.427 13.619-7.936 23.091-6.861 14.49 1.485 31.027 11.059 46.541 26.675l477.338 483.277c32.768 33.178 45.312 72.192 35.328 109.824-9.83 37.12-39.834 67.482-76.442 77.466-37.171 10.086-75.776-2.662-108.544-35.84-142.438-144.282-427.827-433.254-499.098-505.344-92.979-94.157-70.707-202.547-10.701-263.322 60.058-60.774 167.014-83.405 260.045 10.854l499.098 505.344c13.773 13.926 36.096 13.926 49.869 0s13.773-36.557 0-50.534l-499.098-505.344c-58.829-59.494-124.723-84.48-186.778-84.48z" />
<glyph unicode="&#xe93d;" glyph-name="instagram" data-tags="instagram" d="M512 960c282.77 0 512-229.23 512-512s-229.23-512-512-512c-282.77 0-512 229.23-512 512s229.23 512 512 512zM512 898.56c-248.837 0-450.56-201.723-450.56-450.56s201.723-450.56 450.56-450.56c248.837 0 450.56 201.723 450.56 450.56s-201.723 450.56-450.56 450.56zM736.283 253.242c-3.596-19.349-18.63-35.395-37.028-39.478-2.316-0.525-4.664-0.868-7.006-1.285h-360.498c-0.959 0.161-1.923 0.356-2.882 0.477-19.82 2.663-36.481 18.481-40.895 38.886-0.515 2.381-0.843 4.795-1.254 7.189v377.915c0.148 0.881 0.322 1.755 0.437 2.636 2.843 21.144 17.614 37.951 37.575 42.706 2.149 0.511 4.342 0.82 6.523 1.231h361.489c0.836-0.155 1.666-0.35 2.515-0.464 20.45-2.926 37.105-19.308 41.049-40.419 0.386-2.058 0.656-4.129 0.971-6.194v-376.886c-0.328-2.098-0.611-4.223-0.997-6.315zM335.469 282.134c0-10.027 8.305-18.649 17.897-18.649 105.733-0.007 211.459-0.007 317.191 0 9.682 0 17.942 8.608 17.942 18.71 0.006 69.627 0 139.247 0 208.868v1.446h-43.011c6.073-20.29 7.938-40.93 5.558-61.967-2.393-21.043-8.878-40.628-19.44-58.712-10.569-18.105-24.272-33.102-41.049-45.039-43.487-30.963-100.741-33.687-146.884-6.611-23.326 13.673-41.641 32.739-54.41 57.306-19.048 36.66-22.091 75.135-10.917 115.056-14.268-0.013-28.479-0.013-42.882-0.013v-1.271c0-69.708-0.006-139.415 0.006-209.123zM509.906 352.602c51.014-1.143 92.275 41.468 93.349 93.293 1.1 53.446-40.135 97.591-91.252 97.557-49.971 0.034-90.596-41.999-91.297-94.006-0.72-53.406 40.174-95.741 89.2-96.844zM688.492 581.497c0.006 14.87 0.006 29.746 0 44.616 0 10.666-8.073 19.154-18.263 19.16-14.185 0.007-28.369 0.013-42.561 0-10.164-0.013-18.263-8.521-18.27-19.187-0.006-14.742-0.045-29.484 0.051-44.232 0.013-2.199 0.412-4.486 1.081-6.571 2.547-7.848 9.424-12.664 17.845-12.704 6.845-0.013 13.689 0.007 20.541 0.007 7.411 0.087 14.847-0.061 22.265 0.128 9.54 0.249 17.311 8.797 17.311 18.784z" />
<glyph unicode="&#xe93e;" glyph-name="linkedin" data-tags="linkedin" d="M512-64c-282.77 0-512 229.23-512 512s229.23 512 512 512c282.77 0 512-229.23 512-512s-229.23-512-512-512zM512-2.56c248.837 0 450.56 201.723 450.56 450.56s-201.723 450.56-450.56 450.56c-248.837 0-450.56-201.723-450.56-450.56s201.723-450.56 450.56-450.56zM286.72 547.982h96.463v-297.782h-96.463v297.782zM341.293 693.76c-32.999 0-54.573-22.238-54.573-51.436 0-28.593 20.936-51.471 53.321-51.471h0.616c33.635 0 54.583 22.879 54.583 51.471-0.626 29.197-20.948 51.436-53.947 51.436zM626.215 547.982c-51.215 0-74.145-28.903-86.948-49.179v42.178h-96.474c1.271-27.942 0-297.782 0-297.782h96.474v166.306c0 8.9 0.626 17.778 3.177 24.15 6.972 17.78 22.845 36.188 49.495 36.188 34.92 0 48.879-27.306 48.879-67.322v-159.314h96.459l0.004 170.739c0 91.466-47.588 134.035-111.065 134.035z" />
<glyph unicode="&#xe93f;" glyph-name="email" data-tags="email" d="M512 960c282.77 0 512-229.23 512-512s-229.23-512-512-512c-282.77 0-512 229.23-512 512s229.23 512 512 512zM512 898.56c-248.837 0-450.56-201.723-450.56-450.56s201.723-450.56 450.56-450.56c248.837 0 450.56 201.723 450.56 450.56s-201.723 450.56-450.56 450.56zM757.76 305.363v306.477l-178.936-173.349 178.936-133.128zM266.24 305.363l178.932 133.146-178.932 173.33v-306.477zM469.279 415.135l-203.039-130.975h491.52l-203.044 130.975-42.716-41.377-42.721 41.377zM280.986 611.84l231.014-185.511 231.014 185.511h-462.029z" />
<glyph unicode="&#xe940;" glyph-name="pinterest" data-tags="pinterest" d="M512 960c282.77 0 512-229.23 512-512s-229.23-512-512-512c-282.77 0-512 229.23-512 512s229.23 512 512 512zM512 898.56c-248.837 0-450.56-201.723-450.56-450.56s201.723-450.56 450.56-450.56c248.837 0 450.56 201.723 450.56 450.56s-201.723 450.56-450.56 450.56zM317.44 523.175c0-52.605 18.8-99.405 59.124-116.845 6.612-2.864 12.535-0.099 14.452 7.657 1.334 5.367 4.489 18.907 5.897 24.546 1.934 7.67 1.183 10.361-4.153 17.046-11.627 14.529-19.057 33.338-19.057 59.98 0 77.294 54.589 146.49 142.149 146.49 77.533 0 120.13-50.187 120.13-117.212 0-88.188-36.841-162.619-91.533-162.619-30.203 0-52.813 26.462-45.566 58.917 8.677 38.746 25.486 80.562 25.486 108.529 0 25.036-12.685 45.917-38.938 45.917-30.877 0-55.68-33.837-55.68-79.166 0-28.871 9.209-48.396 9.209-48.396s-31.598-141.826-37.136-166.665c-11.031-49.467-1.658-110.106-0.866-116.23 0.465-3.628 4.868-4.491 6.862-1.749 2.847 3.937 39.621 52.031 52.124 100.088 3.537 13.608 20.308 84.071 20.308 84.071 10.030-20.27 39.348-38.124 70.526-38.124 92.812 0 155.781 89.636 155.781 209.616 0 90.723-72.537 175.215-182.784 175.215-137.173 0-206.336-104.185-206.336-191.065z" />
<glyph unicode="&#xe941;" glyph-name="reddit" data-tags="reddit" d="M1024 448c0-282.77-229.23-512-512-512s-512 229.23-512 512c0 282.77 229.23 512 512 512s512-229.23 512-512zM962.56 448c0 248.837-201.723 450.56-450.56 450.56s-450.56-201.723-450.56-450.56c0-248.837 201.723-450.56 450.56-450.56s450.56 201.723 450.56 450.56zM599.771 445.659c-23.027 0-41.691-19.955-41.691-44.574 0-24.625 18.664-44.584 41.691-44.584 23.021 0 41.686 19.959 41.686 44.584 0 24.619-18.665 44.574-41.686 44.574v0zM819.2 444.226c0 41.331-31.441 74.95-70.085 74.95-17.473 0-33.46-6.889-45.748-18.244-47.587 33.030-109.186 52.312-175.109 55.048l34.828 121.446 101.324-24.257c-0.002-0.293-0.040-0.575-0.040-0.868 0-34.152 25.985-61.939 57.919-61.939s57.919 27.786 57.919 61.939c0 34.153-25.983 61.938-57.919 61.938-24 0-44.629-15.693-53.407-37.987l-110.93 26.556c-5.621 1.346-11.26-2.157-12.947-8.047l-39.727-138.523c-69.501-1.192-134.77-20.689-184.647-55.31-12.286 11.355-28.276 18.244-45.748 18.244-38.644 0-70.083-33.621-70.083-74.95 0-27.106 13.525-50.894 33.736-64.059-1.032-7.038-1.576-14.156-1.576-21.345 0-53.712 29.226-103.861 82.293-141.191 51.645-36.334 120.094-56.349 192.746-56.349 72.646 0 141.1 20.019 192.745 56.349 53.068 37.333 82.292 87.479 82.292 141.191 0 7.189-0.541 14.304-1.576 21.345 20.213 13.167 33.741 36.957 33.741 64.062v0zM722.286 690.669c19.781 0 35.875-17.209 35.875-38.365 0-21.151-16.094-38.365-35.875-38.365-19.778 0-35.875 17.214-35.875 38.365-0.001 21.155 16.093 38.365 35.875 38.365v0zM226.839 444.226c0 28.33 21.551 51.378 48.041 51.378 10.031 0 19.346-3.315 27.058-8.955-28.215-23.841-47.8-51.819-57.646-82.007-10.65 9.43-17.453 23.671-17.453 39.584v0zM511.999 184.855c-139.503 0-252.996 78.040-252.996 173.967 0 4.123 0.224 8.208 0.636 12.262 0.8 7.842 2.347 15.547 4.615 23.076 8.474 28.122 26.848 53.781 52.501 75.171 5.689 4.749 11.75 9.277 18.127 13.581 45.673 30.825 108.214 49.87 177.116 49.87 68.898 0 131.441-19.048 177.111-49.87 6.377-4.304 12.44-8.833 18.128-13.581 25.655-21.389 44.029-47.049 52.503-75.171 2.269-7.529 3.816-15.234 4.615-23.076 0.415-4.050 0.635-8.139 0.635-12.262 0-95.928-113.492-173.967-252.992-173.967v0zM779.705 404.64c-9.844 30.187-29.433 58.169-57.647 82.008 7.711 5.64 17.026 8.955 27.057 8.955 26.491 0 48.042-23.047 48.042-51.378 0-15.911-6.799-30.153-17.452-39.586v0zM595.969 283.437c-20.887-18.312-46.786-26.478-83.97-26.478-37.187 0-63.084 8.166-83.975 26.478-4.94 4.331-12.234 3.556-16.283-1.725-4.052-5.286-3.33-13.083 1.613-17.417 24.972-21.894 56.316-32.087 98.645-32.087s73.672 10.193 98.645 32.087c4.94 4.334 5.665 12.131 1.613 17.417-4.058 5.291-11.347 6.056-16.288 1.725v0zM457.13 401.086c0 24.619-18.661 44.574-41.682 44.574-23.024 0-41.688-19.955-41.688-44.574 0-24.625 18.665-44.584 41.688-44.584 23.021 0.003 41.682 19.959 41.682 44.584v0z" />
<glyph unicode="&#xe942;" glyph-name="rss" data-tags="rss" d="M1024 448c0-282.77-229.23-512-512-512s-512 229.23-512 512c0 282.77 229.23 512 512 512s512-229.23 512-512zM962.56 448c0 248.837-201.723 450.56-450.56 450.56s-450.56-201.723-450.56-450.56c0-248.837 201.723-450.56 450.56-450.56s450.56 201.723 450.56 450.56zM326.268 305.902c0-31.55 24.449-57.017 54.541-57.017 30.209 0 54.612 25.465 54.614 57.017 0 31.385-24.404 57.138-54.614 57.138-30.092 0-54.541-25.753-54.541-57.138zM326.268 450.454c51.143 0 99.234-20.98 135.439-58.989 36.167-37.928 56.12-88.613 56.12-142.459l78.891 0.001c0 156.523-121.368 283.842-270.45 283.842v-82.396zM326.268 596.53c182.371 0 330.829-155.908 330.829-347.479l78.771-0.003c0 236.989-183.767 429.917-409.6 429.917v-82.436z" />
<glyph unicode="&#xe943;" glyph-name="soundcloud" data-tags="soundcloud" d="M512 960c282.77 0 512-229.23 512-512s-229.23-512-512-512c-282.77 0-512 229.23-512 512s229.23 512 512 512zM512 898.56c-248.837 0-450.56-201.723-450.56-450.56s201.723-450.56 450.56-450.56c248.837 0 450.56 201.723 450.56 450.56s-201.723 450.56-450.56 450.56zM229.472 417.292l-4.192-36.671 4.192-36.041c0.156-1.516 1.103-2.575 2.3-2.575 1.159 0 2.103 1.048 2.287 2.56l4.971 36.057-4.971 36.681c-0.177 1.511-1.133 2.576-2.287 2.576-1.196 0-2.146-1.065-2.3-2.587zM263.174 439.917c0-0.013-5.638-59.291-5.638-59.291l5.638-57.98c0.159-1.555 1.165-2.677 2.387-2.677 1.198 0 2.182 1.096 2.379 2.66l6.413 57.996-6.405 59.291c-0.197 1.576-1.178 2.664-2.387 2.664-1.215 0-2.221-1.124-2.387-2.664zM294.848 452.879l-5.055-72.276 5.055-69.928c0.136-2.165 1.592-3.8 3.368-3.8 1.756 0 3.207 1.638 3.362 3.8l5.749 69.928-5.749 72.292c-0.155 2.166-1.604 3.801-3.362 3.801-1.776 0-3.224-1.636-3.368-3.817zM326.817 447.647c0.13 2.493 1.782 4.375 3.855 4.375 2.047 0 3.702-1.867 3.847-4.344l5.415-67.076-5.415-70.511c-0.153-2.48-1.805-4.362-3.847-4.362-2.072 0-3.717 1.881-3.855 4.369l-4.766 70.505 4.766 67.045zM358.8 489.659l-4.492-109.084 4.492-70.498c0.116-2.756 2.316-4.927 4.63-4.927 2.302 0 4.639 2.182 4.639 4.944l4.779 70.481-5.224 109.084c-0.139 2.77-2.19 4.952-4.491 4.952-2.312 0-4.224-2.181-4.333-4.952zM390.757 514.59c0-0.009-4.191-134.037-4.191-134.037l4.2-70.053c0.105-3.061 2.227-5.484 4.828-5.484 2.578 0 4.705 2.423 4.828 5.51l4.738 70.028-4.738 134.037c-0.129 3.094-2.251 5.509-4.829 5.509-2.601 0-4.722-2.42-4.836-5.509zM422.435 530.657c0.086 3.736 2.64 6.653 5.809 6.653 3.151 0 5.982-2.926 6.083-6.651l4.344-150.123-3.51-68.88c0-3.715-3.205-6.634-6.363-6.634-3.163 0-6.271 2.919-6.359 6.613l-3.618 68.906 3.613 150.118zM454.115 521.454l-3.034-140.945 3.034-67.822c0.073-4.319 3.135-7.733 6.871-7.733 3.725 0 6.86 3.409 6.86 7.78l3.329 67.768-3.442 140.963c-0.090 4.364-3.098 7.781-6.823 7.781-3.731 0-6.722-3.416-6.795-7.791zM486.519 563.41l-3.181-182.937 3.19-66.389c0.056-4.855 3.916-8.849 8.15-8.849 4.226 0 8.149 3.996 8.149 8.921l3.077 66.316-3.653 182.951c-0.062 4.905-3.73 8.908-7.955 8.908-4.236 0-7.712-4.003-7.776-8.922zM700.9 460.763c-5.613 73.188-58.92 130.597-123.942 130.597-15.912 0-31.349-3.604-45.045-9.705-5.322-2.37-6.72-4.814-6.72-9.546v-257.737c0-4.97 3.334-9.11 7.544-9.596 0.179-0.023 194.213-0.135 195.471-0.135 38.95 0 70.512 36.361 70.512 81.211s-31.592 81.218-70.54 81.218c-9.662 0-18.884-2.251-27.28-6.306z" />
<glyph unicode="&#xe944;" glyph-name="tumblr" data-tags="tumblr" d="M512-64c-282.77 0-512 229.23-512 512s229.23 512 512 512c282.77 0 512-229.23 512-512s-229.23-512-512-512zM512-2.56c248.837 0 450.56 201.723 450.56 450.56s-201.723 450.56-450.56 450.56c-248.837 0-450.56-201.723-450.56-450.56s201.723-450.56 450.56-450.56zM412.082 480.183v-125.933c3.432-102.972 62.017-124.437 130.327-131.53 39.712 1.908 88.363 16.121 112.95 34.981v71.362c-31.64-29.7-116.547-58.834-131.775 25.187l-1.448 127.332 133.223-1.399v85.355h-133.223l2.896 107.743-53.579-1.399c3.688-91.907-46.862-104.21-102.814-107.743v-83.955h43.442z" />
<glyph unicode="&#xe945;" glyph-name="twitter" data-tags="twitter" d="M512-64c-282.77 0-512 229.23-512 512s229.23 512 512 512c282.77 0 512-229.23 512-512s-229.23-512-512-512zM512-2.56c248.837 0 450.56 201.723 450.56 450.56s-201.723 450.56-450.56 450.56c-248.837 0-450.56-201.723-450.56-450.56s201.723-450.56 450.56-450.56zM505.493 539.048l0.977-16.831-16.278 2.061c-59.251 7.9-111.014 34.692-154.964 79.687l-21.487 22.326-5.534-16.487c-11.72-36.752-4.232-75.566 20.184-101.67 13.022-14.426 10.092-16.487-12.371-7.9-7.813 2.748-14.65 4.809-15.301 3.778-2.279-2.404 5.534-33.661 11.72-46.026 8.464-17.174 25.719-34.005 44.601-43.965l15.952-7.9-18.882-0.343c-18.231 0-18.882-0.343-16.929-7.557 6.511-22.326 32.23-46.026 60.879-56.331l20.184-7.213-17.58-10.991c-26.044-15.8-56.646-24.731-87.249-25.418-14.65-0.343-26.695-1.717-26.695-2.748 0-3.435 39.718-22.67 62.832-30.226 69.343-22.326 151.708-12.709 213.564 25.418 43.95 27.135 87.9 81.061 108.41 133.27 11.069 27.822 22.138 78.657 22.138 103.044 0 15.8 0.977 17.861 19.208 36.752 10.743 10.991 20.835 23.013 22.789 26.448 3.256 6.526 2.93 6.526-13.673 0.687-27.672-10.304-31.579-8.93-17.905 6.526 10.092 10.991 22.138 30.913 22.138 36.752 0 1.030-4.883-0.687-10.418-3.778-5.86-3.435-18.882-8.587-28.649-11.678l-17.58-5.839-15.952 11.335c-8.79 6.183-21.161 13.052-27.672 15.113-16.603 4.809-41.997 4.122-56.972-1.374-40.694-15.457-66.413-55.3-63.483-98.922 0 0-2.93 43.622 0 0z" />
<glyph unicode="&#xe946;" glyph-name="vimeo" data-tags="vimeo" d="M1024 448c0-282.77-229.23-512-512-512s-512 229.23-512 512c0 282.77 229.23 512 512 512s512-229.23 512-512zM962.56 448c0 248.837-201.723 450.56-450.56 450.56s-450.56-201.723-450.56-450.56c0-248.837 201.723-450.56 450.56-450.56s450.56 201.723 450.56 450.56zM354.628 531.844c12.636-15.496 60.879-202.61 76.983-237.127 14.056-30.27 52.827-70.289 95.345-41.71 42.493 28.579 183.801 153.709 209.096 301.478 25.273 147.722-170.047 116.777-190.736-11.924 51.71 32.199 79.311-13.083 52.85-64.352-26.413-51.219-50.547-84.625-63.185-84.625-12.613 0-22.317 34.276-36.768 94.184-14.94 61.937-14.848 173.502-76.959 160.853-58.575-11.924-135.557-107.268-135.557-107.268l18.385-25.005c0 0 37.91 30.994 50.547 15.496z" />
<glyph unicode="&#xe947;" glyph-name="windows" data-tags="windows" d="M512-64c-282.77 0-512 229.23-512 512s229.23 512 512 512c282.77 0 512-229.23 512-512s-229.23-512-512-512zM512-2.56c248.837 0 450.56 201.723 450.56 450.56s-201.723 450.56-450.56 450.56c-248.837 0-450.56-201.723-450.56-450.56s201.723-450.56 450.56-450.56zM450.799 636.682l-184.559-25.395 0.013-152.902h184.547v178.297zM450.799 259.285v176.273h-184.547l0.010-150.913 184.536-25.36zM716.8 673.28l-245.585-33.795v-181.101h245.585v214.896zM716.8 222.72v212.846h-245.585v-179.084l245.585-33.762z" />
<glyph unicode="&#xe948;" glyph-name="wordpress" data-tags="wordpress" d="M0 448c0 282.77 229.23 512 512 512s512-229.23 512-512c0-282.77-229.23-512-512-512s-512 229.23-512 512zM61.44 448c0-248.837 201.723-450.56 450.56-450.56s450.56 201.723 450.56 450.56c0 248.837-201.723 450.56-450.56 450.56s-450.56-201.723-450.56-450.56zM282.907 601.193c31.008 0.329 64.296 0.694 97.457 2.513 1.429 0.077 2.605-1.264 2.605-2.811v-16.867c0-1.547-1.172-2.811-2.605-2.811h-31.607c-3.534 0-5.022-2.202-3.782-5.973l99.131-301.434 60.318 187.986-40.102 113.194c-1.455 4.105-3.182 6.228-9.352 6.228h-27.738c-1.434 0-2.606 1.265-2.606 2.811v16.867c0 1.546 1.175 2.876 2.606 2.811 51.617-2.374 103.554-2.358 155.797 0 1.431 0.064 2.606-1.264 2.606-2.811v-16.867c0-1.547-1.172-2.811-2.606-2.811h-27.587c-5.468 0-7.229-2.609-5.719-7.202l97.582-296.718 35.83 112.577c43.32 136.105-37.063 150.508-35.065 218.177 0.988 33.47 24.757 48.082 48.572 47.43-48.603 46.115-113.436 74.282-184.64 74.282-96.003 0-180.435-51.195-229.094-128.57zM728.148 449.667l-85.145-248.89c84.586 47.872 141.955 140.642 141.955 247.224 0 48.568-11.91 94.272-32.884 134.164 1.496-41.918-10.746-93.973-23.926-132.498zM516.71 427.117l-84.089-248.754c25.122-7.874 51.768-12.125 79.38-12.125 32.057 0 62.816 5.726 91.391 16.213l-86.682 244.666zM395.206 193.292l-131.637 371.556c-15.743-35.599-24.527-75.166-24.527-116.847 0-112.448 63.856-209.519 156.163-254.709zM213.432 448.001c0 170.184 133.703 308.199 298.568 308.199s298.568-138.016 298.568-308.199c0-170.184-133.703-308.199-298.568-308.199s-298.568 138.016-298.568 308.199z" />
<glyph unicode="&#xe949;" glyph-name="youtube" data-tags="youtube" d="M1024 448c0-282.77-229.23-512-512-512s-512 229.23-512 512c0 282.77 229.23 512 512 512s512-229.23 512-512zM962.56 448c0 248.837-201.723 450.56-450.56 450.56s-450.56-201.723-450.56-450.56c0-248.837 201.723-450.56 450.56-450.56s450.56 201.723 450.56 450.56zM753.015 329.923c8.691 37.837 8.743 79.123 8.743 118.071 0 38.954 0.052 80.246-8.646 118.083-6.108 26.567-27.839 46.162-53.994 49.078-61.935 6.921-124.631 6.955-187.047 6.921-62.422 0.034-125.113 0-187.053-6.921-26.149-2.916-47.869-22.511-53.982-49.078-8.691-37.837-8.795-79.129-8.795-118.083 0-38.948 0-80.234 8.697-118.071 6.108-26.567 27.828-46.156 53.982-49.078 61.935-6.921 124.631-6.955 187.047-6.921 62.422-0.034 125.113 0 187.053 6.921 26.149 2.922 47.881 22.511 53.994 49.078zM467.042 540.16l138.24-79.813-138.24-79.813v159.626z" />
<glyph unicode="&#xe94a;" glyph-name="dribbble" data-tags="dribbble" d="M1024 448c0-282.77-229.23-512-512-512s-512 229.23-512 512c0 282.77 229.23 512 512 512s512-229.23 512-512zM962.56 448c0 248.837-201.723 450.56-450.56 450.56s-450.56-201.723-450.56-450.56c0-248.837 201.723-450.56 450.56-450.56s450.56 201.723 450.56 450.56zM793.078 390.291c-3.646-18.452-9.046-36.568-16.12-53.885-6.912-17.011-15.485-33.404-25.502-48.692-9.868-15.191-21.237-29.443-33.725-42.434-12.515-12.935-26.286-24.708-40.907-35-14.769-10.331-30.578-19.221-46.968-26.432-16.7-7.308-34.185-12.907-51.938-16.687-18.225-3.893-36.965-5.88-55.69-5.88-18.739 0-37.478 1.987-55.677 5.88-17.78 3.78-35.264 9.379-51.951 16.687-16.389 7.211-32.213 16.101-46.982 26.432-14.621 10.29-28.392 22.064-40.88 35-12.501 12.992-23.869 27.243-33.752 42.434-9.964 15.288-18.551 31.682-25.489 48.692-7.075 17.318-12.488 35.434-16.147 53.885-3.699 18.901-5.589 38.291-5.589 57.709 0 19.432 1.889 38.864 5.59 57.723 3.659 18.452 9.072 36.596 16.147 53.885 6.939 17.024 15.526 33.431 25.489 48.72 9.882 15.203 21.251 29.428 33.752 42.434 12.488 12.937 26.259 24.681 40.88 34.957 14.769 10.375 30.593 19.264 46.982 26.488 16.687 7.323 34.17 12.937 51.951 16.688 18.199 3.864 36.938 5.824 55.677 5.824 18.725 0 37.464-1.96 55.69-5.824 17.753-3.753 35.237-9.366 51.938-16.688 16.389-7.224 32.199-16.114 46.968-26.488 14.621-10.276 28.393-22.021 40.907-34.957 12.488-13.006 23.856-27.231 33.725-42.434 10.017-15.289 18.59-31.697 25.501-48.72 7.074-17.29 12.474-35.433 16.12-53.885 3.739-18.86 5.642-38.291 5.642-57.723 0-19.417-1.904-38.808-5.642-57.709zM291.175 498.483c6.225-0.056 104.618-1.344 217.983 29.891-40.866 75.292-84.527 136.737-87.673 141.092-65.844-32.243-114.986-95.158-130.31-170.982zM286.302 455.811c-0.068-2.632-0.189-5.179-0.189-7.812 0-62.901 22.884-120.245 60.497-163.604-0.081 0.127 64.534 119 191.953 161.728 3.078 1.064 6.211 2.017 9.315 2.94-5.926 13.915-12.394 27.859-19.158 41.607-121.573-37.743-238.233-35.027-242.418-34.86zM522.228 692.831c-19.185 0-37.802-2.408-55.637-6.86 3.537-4.929 47.887-65.94 88.267-142.827 89.092 34.635 122.721 87.724 123.303 88.619-41.569 38.011-96.152 61.067-155.933 61.067zM562.405 407.96c-139.311-50.362-184.805-151.856-185.298-152.964 40.084-32.325 90.361-51.828 145.12-51.828 32.698 0 63.844 6.904 92.181 19.404-3.496 21.392-17.213 96.376-50.438 185.92-0.526-0.181-1.052-0.337-1.566-0.532zM755.343 409.193c-4.86 1.624-70.919 23.31-147.131 10.639 30.971-88.257 43.554-160.133 45.958-174.889 53.017 37.1 90.67 96.011 101.173 164.249zM588.718 471.156c1.742-4.285 3.443-8.485 5.104-12.684 81.112 10.584 161.023-7.224 164.439-7.951-0.54 58.043-20.562 111.313-53.692 153.018-0.446-0.656-38.315-57.399-131.538-96.88 5.48-11.676 10.787-23.56 15.687-35.504z" />
<glyph unicode="&#xe94b;" glyph-name="yahoo" data-tags="yahoo" d="M0 448c0 282.77 229.23 512 512 512s512-229.23 512-512c0-282.77-229.23-512-512-512s-512 229.23-512 512zM61.44 448c0-248.837 201.723-450.56 450.56-450.56s450.56 201.723 450.56 450.56c0 248.837-201.723 450.56-450.56 450.56s-450.56-201.723-450.56-450.56zM541.493 582.371l8.633-37.615h61.179l-102.944-99.988c-21.002 31.215-70.236 96.286-104.582 149.936h76.676v37.615h-255.175v-37.615h75.786c29.4-24.666 141.913-175.976 146.58-191.031 1.867-14.103 3.595-97.497-1.913-103.771-11.060-12.597-61.506-9.282-73.688-10.233l-4.198-25.816c22.212-0.705 94.545 1.943 117.040 1.943 44.286 0 121.893 0.196 132.86-0.707l1.354 27.099c-11.202 2.008-72.287 0.247-80.734 2.252-1.867 13.151-3.922 100.824-2.053 109.859 8.446 26.196 136.828 133.085 150.875 137.149 3.171 0.703 7.885 2.070 13.251 3.303h41.346l23.848 37.62h-224.141zM718.641 266.792l-0.187 40.549 22.072-2.91 19.787-1.054-5.507-39.698-18.758 1.506-17.407 1.607zM758.729 331.028l39.991 166.166c-6.672 0.248-67.386 6.421-75.275 8.077l0.935-171.283 34.349-2.961z" />
<glyph unicode="&#xe94c;" glyph-name="uninga-outline" data-tags="uninga-outline" d="M476.8 949.2l-7.8-6.8-0.6-352.6c-0.4-239 0.2-356.8 1.6-365 2.2-13.6 7.2-26 14.6-36.6l4.8-7-25.2-29.2c-13.8-16-28-32.6-31.6-37l-6.4-8-9.4 5c-13.4 7-25.4 19.8-32.6 35-7 14.2-12.2 19-21.2 19-8.2 0-14.4-4.6-27.8-20.4-13.6-16.2-30.8-30.6-43.2-36.2-7.4-3.4-13.2-4.2-32-4.2-20.2-0.2-24.4 0.4-33.6 4.6-18.4 8.2-35.4 31.6-47.8 65.2-3.4 9.4-3.6 25.4-4.6 309-0.8 243.8-1.4 299.8-3.6 303.6-3.6 6.2-14.6 10.6-22.4 9-4.6-0.8-9.8-5.2-19.4-16.4-68.2-79.6-104-160.4-121.6-274.2-4.6-29.2-3.2-101 2.6-134 12.6-72.6 33.2-128.2 69-188 53.2-88.4 145-167.2 238.4-204.6 62.4-25 118.6-37.4 176-38.8l32-0.8 7.6 6.2 7.4 6.2v740l-4.2 12.4c-2.2 6.8-6.6 16-9.8 20.6l-5.4 8.2 6.2 7.6c24.8 30.2 55.8 65 57.8 65 4.6 0 22.8-11.8 28.4-18.4 3.2-3.6 8.2-12.2 11.6-19.2 7-14.8 11.4-18.4 23.2-18.4 8.4 0 9.6 0.6 21 13.4 29.8 33 42.6 42 66.8 46.6 15.6 3.2 36 0.2 50.2-6.8 17.6-9 32.6-30.2 44.6-63.2l4.6-13 2-632.8 4.6-4.6c3.6-3.6 6.8-4.6 14.6-4.6 10.2 0 10.4 0.2 24 14.8 62.2 66.2 102.4 140.4 124.6 229.4 11.2 44.6 13.8 67.4 13.8 118.8s-2.6 74.2-13.8 118.8c-19.2 76.6-50.8 140.6-99.8 201.2-93.2 115.2-242.8 188-386.8 188h-33.6l-7.8-6.8zM561 932c116.4-13 219.8-63.4 300-146.2 78-80.8 124.2-182.6 135-297.8 8.2-86.4-10.6-180.6-51.8-261.6-20-39-56-90.2-79-112.2l-7.2-7v294.2c0 188.4-0.8 301.4-2 314.4-3.8 35.4-16.6 65.4-38.4 89.2-17 18.6-38.4 27-69.4 27-33.4 0-58-13-86.6-45.2-6.8-7.6-12.8-14-13.6-14.4-0.6-0.2-3.4 4.2-6.2 10-7.6 16.4-23.8 31.6-44.4 41.4-9.6 4.8-18.8 8.2-20.2 7.6-2.6-1-76.6-87.2-81.4-94.8-2-3.4-1.8-4.8 2-8.8 8.6-9.2 16.8-24.2 19.4-35.4 2.2-9.4 2.8-77.8 2.8-370.8v-359.6h-19.6c-53.6 0-121.4 14.4-176 37.2-140.2 58.8-246.6 182-283 328-12 47.6-14.4 68-14.4 120.8s2.4 73.2 14.4 120.8c16.4 66.2 47.4 128.4 91.6 183.6l18 22.6 1-294c1.2-317.6 0.4-295.2 11-325 4.8-13.6 17.8-34.2 29.2-46.8 18.8-20.6 49.2-30 82.2-25.6 27.6 3.6 48.8 16.6 73.4 44.4l14.2 16 5.4-11.6c9.8-20 31.6-37.8 59.2-48.2 4.8-2 6-1.4 11 4.2 3 3.6 9 10.6 13.6 15.6 15.8 17.8 64.8 76 64.8 77 0 0.6-3.4 5.6-7.8 11-4.2 5.4-9.8 14-12.4 19.4l-4.8 9.6-0.6 356.6-0.4 356.4h26.4c14.6 0 34.8-1 44.6-2zM318.8 917.4c-36.6-14.8-44.2-19.6-46.8-29.2-1.4-5.4-1.8-110.4-1.6-330.6l0.6-322.6 5.6-11.4c11-22.4 34.4-31.2 59.8-22.4 9.8 3.2 25 16.8 31 27.4 3.4 6 3.6 23.4 4.2 344.4 0.4 252.2-0.2 339.4-1.8 343.6-2.8 6.4-11.2 11.4-19.2 11.4-3 0-17.4-4.8-31.8-10.6zM350 574.8c0-369.2 1.2-339.8-13.8-350-10.2-6.8-27.4-6.8-35 0.2-2.8 2.6-6.2 7.2-7.2 10-1.2 3.4-2 119.2-2 326v320.8l4.6 2.6c7.8 4.2 48.4 21.4 51 21.4 1.8 0.2 2.4-67.4 2.4-331zM676.2 714.8c-17.4-6.2-30.2-18.2-36.2-34-1.2-3-2-140-2-356.2l-0.2-351.4 5.2-5.2c7.2-7 17.2-6.4 42 3 31.4 11.6 48.4 20 51.4 25.2 3.6 6.8 4 676.4 0.2 688.8-3.6 11.4-13.8 22.8-25.4 28.2-11.8 5.4-22.4 6-35 1.6zM708.2 690.8c10.2-9 9.8 7.2 9.8-350.2v-333.8l-12.4-5.4c-7-3-20.2-8-29.6-11.2l-17-5.8-0.6 343c-0.4 386.6-2 351.8 15.4 363 7.8 5 10.8 5.8 19.6 5 6.6-0.4 12.2-2.2 14.8-4.6z" />
<glyph unicode="&#xe94d;" glyph-name="swipe-right" data-tags="swipe-right" d="M494.741 818.758h250.738l-114.759 114.759 26.483 26.483 158.897-158.897-158.897-158.897-26.483 26.483 114.759 114.759h-248.938v-158.839c14.754 11.054 33.092 17.598 52.966 17.598 38.225 0 70.44-23.922 82.831-57.49 15.564 13.775 36.013 22.179 58.41 22.179 49.094 0 88.276-39.485 88.276-88.192v-0.476c14.754 11.037 33.092 17.546 52.966 17.546 49.094 0 88.276-39.524 88.276-88.28v-211.357c0-165.761-134.377-300.138-300.138-300.138-109.918 0-225.922 51.288-305.759 196.742-115.235 209.945-262.602 347.63-192.431 417.802 50.199 50.199 129.014 2.040 198.051-62.529v312.792c0 49.187 39.522 88.573 88.276 88.573 42.921 0 78.266-30.311 86.476-70.621zM620.083-28.69c146.285 0 264.872 126.595 264.872 264.828 0 0 0-81.682 0 0v211.802c0 29.284-23.51 53.025-52.966 53.025-29.252 0-52.966-23.7-52.966-53.025v-17.596h-35.31v88.049c0 29.377-23.51 53.193-52.966 53.193-29.252 0-52.966-23.712-52.966-53.193v-52.738h-35.31v88.049c0 29.377-23.51 53.193-52.966 53.193-29.252 0-52.966-23.712-52.966-53.193v-123.359h-35.31v370.573c0 29.354-23.51 53.151-52.966 53.151-29.252 0-52.966-23.556-52.966-53.151v-398.822c-72.683 77.697-168.373 163.165-207.588 123.737-38.388-38.595 60.534-144.949 198.668-377.375 62.239-104.723 140.991-177.132 273.704-177.149v0z" />
</font>
</defs>
</svg>
